<?xml version="1.0" encoding="utf-8"?>
<!-- Generator: Adobe Illustrator 24.0.3, SVG Export Plug-In . SVG Version: 6.00 Build 0)  -->
<svg version="1.1" id="Layer_1" xmlns="http://www.w3.org/2000/svg" xmlns:xlink="http://www.w3.org/1999/xlink" x="0px" y="0px"
	 viewBox="0 0 100 100" style="enable-background:new 0 0 100 100;" xml:space="preserve">
<style type="text/css">
	.st0{fill:#A00023;}
</style>
<path class="st0" d="M65.7,68.2c-0.2,0.1-0.5-0.2-0.7,0c-0.4,0.4-0.6,0.4-0.8-0.1c-0.2-0.5-0.8-0.7-1.3-0.9
	c-0.8-0.4-1.7-0.1-2.4-0.9c-0.6-0.6-1.6-0.8-2.4-1.1c-1.4-0.5-2.7-1.2-4.3-0.8v0.1c0.4-0.3,0.4-0.6,0-0.8c-1-0.4-1.9-0.7-2.9-1
	c-0.3-0.1-0.7-0.2-1,0.2c1.1,0.7,2.4,0.7,3.4,1.6l0,0c-0.4,0.2-0.8-0.3-1.3-0.1c0,0.1-0.1,0.3,0,0.3c1.6,1.3,2.6,3.1,3.7,4.7
	c0.5,0.8,1.5,1.6,1.6,2.4c0.2,0.9,0.5,1.8,0.7,2.6c0.5,1.9,0.9,3.8,1.2,5.7c0,0.3,0.1,0.6,0,0.9c0,0.4,0.2,0.9-0.3,1.1
	s-0.8-0.3-1-0.7c-0.6-1.1-1.4-1.9-2.5-2.7c-0.6,1.8-0.3,3.7-1.3,5.5c-1.5-1.3-1.1-3.6-2.7-4.8c-0.6,0.6-0.4,1.3-0.7,2
	c-0.2,0.4-0.2,0.9-0.5,1.2c-0.2,0.3-0.5,0.3-0.7-0.1c-0.1-0.3-0.2-0.7-0.3-1c-0.5-2.4-1.6-4.6-3-6.6c-0.2-0.4-0.5-0.7-1.1-0.8
	c-0.1,0.9,0.1,1.8,0.3,2.6c1,3.4,2.3,6.5,4.7,9.2c0.1,0.1,0.2,0.2,0.3,0.3c0.1,0.2,0.3,0.4,0.2,0.7c-0.2,0.3-0.4,0.2-0.7,0.2
	c-1-0.3-2.1-0.5-3.2-0.6c-1.1-0.1-1.8-1-2.7-1.7c0.1,2.3,0.5,4.3,1,6.4c0.1,0.5,0.6,1,0.1,1.4c-0.4,0.3-0.8-0.2-1.2-0.4
	c-1.1-0.6-2.2-1.2-3-2.2c-0.1-0.2-0.3-0.3-0.6-0.1c-0.1,1.2,0.1,2.5,0.5,3.7c0.2,0.8,0.8,1.8,0.2,2.2c-0.6,0.5-1.4-0.3-2.1-0.8
	c-1-0.7-2.1-1.2-3.1-2.1c-1.9-1.7-3.2-3.9-4.2-6.2c-0.4-0.9-0.5-1.8-1.3-2.4c-0.4-0.3-0.7-0.9-0.5-1.3c0.5-1.1,0-2,0-3
	c0-0.9,0-1.9,0-2.8c0-0.8-0.2-1-1-0.7c-1.5,0.5-3,1.1-4.5,1.6c-0.5,0.2-1,0.4-1.5,0.6c-1.9,0.6-3.3-0.3-3.4-2.2
	c-0.1-0.9-0.1-1.8,0.1-2.7c0.2-1,0.6-2-0.3-2.9c-0.1-0.1-0.2-0.3-0.1-0.4c0.8-1.5-0.8-2.1-1.1-3.2c-0.1-0.4-0.4-0.4-0.7-0.4
	c-0.5-0.1-1-0.2-1.3-0.6c-0.4-0.4-0.6-0.8-0.4-1.5c0.9-2,1.9-3.9,3.6-5.4c0.9-0.7,1.3-1.6,1.3-2.7c0-0.8,0.1-1.7-0.1-2.5
	C20.1,53,20.5,52,21.1,51c0.9-1.5,1.8-3,2.6-4.5c0.5-0.9,0.9-1.7,1.1-2.7c0.8-3.7,2.2-7.3,3.6-10.9c1.3-3.1,2.6-6.1,4.1-9.1
	c2.1-4.1,4.8-7.7,8.2-10.8c2.6-2.4,5.4-4.5,8-6.9c0.6-0.5,1.3-0.9,2.1-1.3c0.2,0.7-0.1,1.3-0.3,1.8c-0.8,1.6-1.4,3.3-2,5
	c-0.5,1.4-0.3,2.9-1.2,4.1c-0.1,0.1-0.1,0.4,0.1,0.5c0.2,0.1,0.4,0,0.5-0.1c1.5-0.7,2.9-1.6,4.2-2.5c1-0.7,2-1.4,3.1-2.1
	c0.7-0.4,1.5-0.3,2.1-0.8c0.4,0.4,0.1,0.7-0.1,1c-0.8,1.7-1.6,3.3-2.4,5c-0.2,0.6-0.8,1.3-0.4,1.8c0.6,0.5,1.3-0.1,1.9-0.4
	c1.7-0.8,3.5-1.6,5.3-2.3c0.5-0.2,1.1-0.5,1.5-0.9c0.6-0.5,1.2-0.4,1.8,0.2c-2.2,2.9-4,6.1-5.7,9.4c0.4,0.3,0.7,0.1,1,0
	c1.7-0.6,3.4-1.2,5-1.9c1-0.4,1.9-1.1,2.8-1.7c0.4-0.3,0.7-0.3,1,0c0.4,0.4,0.3,0.6,0,1c-1,1.6-2,3.2-3,4.8
	c-0.2,0.3-0.4,0.5-0.2,0.8c0.2,0.4,0.6,0.3,0.9,0.2c1.6-0.3,3.1-0.7,4.7-1c0.8-0.2,1.5-0.5,2.5-0.4c-1.2,2.2-3,3.8-3.9,6.1
	c2.6,0.3,5.1,0.2,7.8,0.4c-1.6,2.1-3.7,3.5-5.2,5.8c3,0.3,5.8,0.6,8.7,1.5c-1.8,1.4-3.5,2.6-5.2,4.1c2.4,0.6,4.7,0.4,7,1.4
	c-1.5,1.6-3.5,2.5-5.1,4.1c2.1,1.5,4.6,2.2,7,3.3c-1.9,1.5-4.1,2-6.1,3.3c1.3,0.4,2.2,0.7,3.2,1c0.2,0.1,0.4,0.1,0.6,0.2
	c0.5,0.3,1.4,0.4,1.4,1.1c0,0.8-0.9,0.7-1.5,0.9c-1.9,0.7-3.7,1.4-5.6,1.9c-0.7,0.2-1.3,0.5-2,0.5c-0.3,0-0.5,0.1-0.6,0.3
	c-0.1,0.3,0.2,0.4,0.4,0.6c1.7,1,3.4,2,5.1,3.1c1,0.6,2,1.3,2.9,2.1c0.3,0.2,0.3,0.5,0.2,0.8c-0.1,0.2-0.3,0.3-0.5,0.3
	c-2.6,0-5.2,0.7-8,0.5c0.3,0.9,1,1.4,1.5,2c0.6,0.6,1.3,1.2,2,1.8c0.3,0.3,0.6,0.6,0.5,1c-0.2,0.5-0.6,0.6-1.1,0.6
	c-0.4,0.1-0.7-0.1-1-0.2c-2.1-0.7-4.2-1-6.4-1.5c-0.3-0.1-0.6,0-0.9,0.3c0.9,1.3,1.6,2.9,2.8,4.1c0.2,0.2,0.3,0.4,0.4,0.6
	c0.3,0.6,0.1,1-0.6,0.9c-0.5,0-0.9-0.2-1.3-0.4c-2.3-0.7-4.5-1.7-6.6-2.6c-0.7-0.3-1.1-0.6-0.8-1.5c0.1-0.5-0.1-1.1-0.2-1.6
	c-0.1-0.9,0.2-1.3,1.2-1.2c0.8,0.1,1.7,0.3,2.5,0.4c0.2,0,0.5,0,0.7-0.1c0-0.2,0-0.3-0.1-0.4c-0.5-0.2-0.6-0.2-1.1-1l-0.1-0.1
	c0.3-0.7-1.4,0.3-0.8-0.8C66.1,69.1,65.3,68.7,65.7,68.2c0.2-0.6,0.8-0.5,1.3-0.5c0.6,0,1.2,0.1,1.8,0.1c1.3,0,2.6,0.1,3.9-0.2
	c-0.3-0.8-0.8-1-1.2-1.3c-0.6-0.5-1.2-0.9-1.8-1.3c-1-0.8-1-1.5,0.3-1.9c1.5-0.5,2.8-1.2,4.2-1.8c-0.1-0.6-0.4-1.1-0.9-1.5
	s-1-0.8-1.4-1.3c-0.8-1.1-2-1.3-3.2-1.1c-1.2,0.1-2.3-0.3-3.5,0c-1-0.8-2.1-0.4-3.1-0.3c-0.4,0.1-0.8,0.1-0.7-0.4
	c0-0.3,0-0.8,0.7-0.7c2.4,0.2,4.8,0.3,7.1,0.5c0.8,0.1,1.6,0,2.3,0.6c0.3,0.2,0.6,0.2,0.8,0.1c1.2-0.5,2.5-0.9,3.6-1.9
	c-1.1-0.7-2-1.4-3-2.1c-0.4-0.3-0.8-0.5-0.7-1c0.1-0.5,0.5-0.7,0.9-0.9c0.4-0.1,0.8-0.3,1.2-0.5c0.4-0.2,0.8-0.4,1.5-0.7
	c-3.2-0.9-6.1-1.4-9.1-2c1.5,0.2,2.6-0.7,3.6-1.5s2.4-1,3-2.4c-1.7,0.1-3.3,0.6-4.9,1c-1.5,0.4-3,1.1-4.6,1.3
	c-1.4,0.2-2.8,0.4-4.1,0.7c-3.2,0.8-6.4,1.7-9.5,2.9c-0.6,0.3-1.3,0.5-2.2,0.6c0.9-0.6,1.5-0.9,2.2-1.3c0.9-0.6,1.8-1.3,2.9-1.5
	c0.1,0,0.2,0,0.2,0.1c-0.1,0.4-0.7,0.4-0.7,0.9c1-0.3,2-0.6,2.5-1.5c0.6-0.9,0.5-0.9,1.4-1.1c0.1,0.5-0.6,0.8-0.3,1.4
	c1.1-0.1,2.2-0.5,3.2-0.9c0.7-0.3,1.2-1,2.1-0.5c1.9-0.6,4.2-0.6,5.4-2.6H67c0.5,0.5-0.7,0.6-0.2,1.1c1-0.3,1.9-0.6,3.1-0.9
	c-0.6-0.5-1.1-0.4-1.6-0.4c-0.6,0-0.8-0.3-0.6-0.9c0.1-0.2,0.2-0.4,0-0.6c-0.6-0.1-1.3,0-2,0.2c-2.7,0.9-5.4,1.8-8,2.8
	c-3.7,1.3-7.5,2.7-11.2,4.1c-1.5,0.6-3,1.1-4.3,2.3c0.8,0.4,0.8,0.4,1.1,0.3c0.8-0.2,1.6-0.4,2.2-0.8c0.6-0.3,0.9-0.1,1.4,0.2
	c-0.9,0.4-1.7,0.7-2.5,1c-0.2,0.1-0.4,0.2-0.3,0.4c0.1,0.2,0.3,0.3,0.5,0.2c0.9-0.7,2-0.4,3-0.6c2.2-0.6,4.4-1.2,6.6-1.8
	c0.2-0.1,0.6-0.2,0.8,0.3c-0.8,0.6-1.7,0.7-2.6,1c-1,0.2-1.6,1.1-2.5,1.7c-0.1-0.5,0.6-0.6,0.4-1.1c-0.8,0.1-1.6,0.6-2.3,0.8
	c-0.7,0.3-1.5,0.5-2.4,0.8c0.6,0.8,1.4,1.3,2.1,1.8c0.4,0.3,1.1-0.3,1.7-0.4c0.5-0.1,1.1-0.1,1.6-0.1s1,0,1.5-0.2l0,0
	c0.2,0.3-0.6,1.1,0.5,0.9l0,0c-0.1,0.4-0.5,0.4-0.8,0.5c-0.9,0.1-1.8,0.2-2.7,0.3c-0.2,0-0.4,0-0.4,0.3c0,0.2,0.1,0.3,0.2,0.4
	C50,58,50,58,49.4,58.8c-0.2,0.2-0.4,0.5-0.6,0.7c-0.3,0.5-0.6,1-1.1,0.1c-0.1-0.2-0.4,0-0.5,0c-0.9,0-1.8,0.3-2.6,0.4
	c-0.9,0.1-1.4,0.7-1.8,1.5c1.8,0.1,1.8,0.1,3.1-0.7c0.2-0.1,0.4-0.2,0.7-0.3c0.4-0.2,0.8-0.1,1.1,0.2c0.5,0.3,0,0.6-0.1,0.9
	c-0.2,0.5,0,0.8,0.6,0.6c0.8-0.2,1.6,0,2.3,0.1c2.3,0.5,4.5,1.4,6.7,2.2c0.7,0.2,1.4,0.2,2,0.5c1.6,0.9,3.3,1.6,5,2.3
	C64.8,67.4,65.3,67.7,65.7,68.2z M34.9,51.7c0.3-0.8,1.6-0.6,1.8-1.6c-1.4-1-2.7-1.4-3.9,0.1c-0.1,0.1-0.2,0.1-0.2,0.2
	c-0.4,0.3-0.7,0.2-0.8-0.4c-0.1-0.5-0.1-1.1-0.3-1.6c-0.2-0.7-0.8-0.9-1.4-0.9s-0.4,0.7-0.5,1.1c-0.2,1.2,0.3,2.3,0.4,3.5
	s0.2,1.2,1.3,0.8C32.5,52.4,33.7,51.9,34.9,51.7c-1.4,1.2-3.2,1.5-4.9,2.2c-0.4,0.2-0.7-0.1-0.7-0.5c0.3-1.6-0.6-3-0.5-4.5
	c0-0.7-0.2-0.8-0.9-0.4c-1.7,1-3.4,2-5.3,2.6c-0.6,0.2-1,0.7-1.1,1.5c1.2,0.2,2.2,0.8,3.4,0c0.6-0.5,1.5-1.4,2.2-0.9
	c0.7,0.4,0.6,1.6,0.7,2.5c0,0.3,0,0.7,0.4,0.7c0.7,0,1.1,0.6,1.7,0.8c1.2,0.6,2.4,1.1,3.7,0c0.4-0.4,1-0.9,1.4-0.7
	c1,0.5,1.4-0.4,1.9-0.8c0.5-0.4,0.4-2.3-0.1-2.8c-0.6-0.5-1,0.2-1.4,0.4C35.2,51.6,35.1,51.6,34.9,51.7z M43.6,40
	c-1.3,0.3-2,1.3-2.8,2c0.2,0.4,0.8-0.3,0.8,0.6c-1.8-0.4-2.9,0.8-4.1,1.8c-1.1,1-2.2,2.1-3.2,3.1c-0.1,0.1-0.1,0.2-0.1,0.5
	c0.5,0.2,1,0.4,1.6,0.7c0.4,0.2,0.7,0.1,1.1-0.2c0.8-0.8,1.8-1.4,2.8-1.9c1.3-0.6,2.2-1.7,3.4-2.3c2-0.9,3.7-2.2,5.4-3.6
	c1.8-1.4,3.4-2.9,5.6-3.6c3-1,4.9-3.4,7-5.6c-1-0.6-2-0.2-2.9-0.3c-1.8-0.2-3.2,0.5-4.7,1.5c-2.3,1.5-4.3,3.4-6.8,4.7
	c-1.1,0.6-2.1,1.2-2.9,2.2C43.8,39.8,43.7,39.9,43.6,40z M47.7,30.7c-1.9,2.1-3.9,4.1-5.8,6.1c-1.3,1.4-3.1,2.5-3.7,4.5
	c-0.1,0.2-0.3,0.4-0.5,0.6c0,0-0.2,0-0.3,0c0-0.2,0-0.4,0-0.7c-0.9,0.8-1.9,1.3-2.6,2.1c-0.9,1-1.9,2-2.9,3
	c-0.7,0.7-0.7,0.9,0.2,1.3c0.6,0.2,0.9,0.1,1.3-0.3c0.7-0.8,1.6-1.5,2.2-2.4c0.1-0.2,0.4-0.6,0.6-0.6c1.2,0.1,1.8-0.9,2.5-1.6
	c0.9-0.8,1.7-1.7,2.6-2.4c0.7-0.7,1.7-1.1,2.1-2.1c0-0.1,0.3-0.2,0.4-0.2c0.7,0.6,1.1-0.2,1.5-0.4c3.5-2.3,6.9-4.9,10.6-6.9
	c1.1-0.6,1.2-2,1.7-3c0-0.1-0.1-0.2-0.1-0.2c-0.7,0-0.4-0.3-0.2-0.6c0.3-0.4,0.8-0.6,1.1-1c0.1-0.2,0.2-0.5,0.1-0.7
	c-0.1-0.3-0.4-0.3-0.7-0.2c-1,0.2-2,0.2-3,0.3c-1.3,0.1-2.4,0.5-3.2,1.5c-0.2,0.3-0.4,0.6-0.9,0.5c0-0.4,0.3-0.7,0.6-1
	c1.6-1.5,1.8-3.5,2.3-5.4c-1.7,2.1-2.7,4.5-4,7c0.6-0.1,0.7-0.6,1.2-0.6c0,0.8-0.9,1-1.1,1.9c2-0.9,3.8-1.8,5.6-2.7l0,0
	c-0.2,0.5-0.5,0.7-0.9,0.9C52.2,28.5,50,29.6,47.7,30.7c0.1-0.6-0.1-0.7-0.6-0.4c0-0.6,0.4-0.9,0.9-1.1s0.7-0.6,0.9-1
	c1.1-2.2,2-4.4,3.3-6.5c0.1-0.2,0.4-0.5,0.1-0.9c-1.9,0.9-3.8,1.7-5.7,2.8c-0.5,0.3-1.7,0.5-1.2,1.7c0.1,0.3-0.2,0.5-0.4,0.5
	c-0.9-0.1-1.5,0.5-2,1.1c-1.7,2-3.3,4-5,5.9c-0.5,0.6-0.5,1,0.4,1.7c-1.7-0.3-2.4,0.6-3.1,1.5c-0.4,0.5-0.7,0.9-1.1,1.4
	c-1.1,1.2-1.7,2.8-2.9,3.9c-0.5,0.5-0.7,1.3-1.1,1.9c0.6,0.6-0.1,0.8-0.4,1.2c-0.4,0.5-1.2,0.7-1.6,1.6c0.9-0.3,1.3,0.3,1.8,0.6
	c0.6,0.4,0.8,0.4,1.2-0.2c1.4-1.7,3-3.3,4.6-4.8c1.1-1.1,2.4-2.2,3-3.8c0.1-0.1,0.1-0.1,0.2-0.2c0.6,0.2,1-0.3,1.4-0.7
	c2.1-2,4.1-4.2,6.5-6C47.2,30.6,47.4,30.6,47.7,30.7z M65.11,36.36c0.33-0.15,0.56-0.31,0.89-0.46c-0.36-0.26-0.76-0.33-1-0.06
	C64.84,36.11,65.12,36.26,65.11,36.36c-0.72,0.08-1.46,0.27-2.05,0.78l0,0c-0.07-0.21,0-0.61-0.31-0.56
	c-1.94,0.09-3.83-0.13-5.67,0.58c-4.45,1.8-8.72,3.73-13.11,5.74c-0.56,0.31-1.18,0.41-1.41,1.19c-0.05,0.3-0.38,0.44-0.54,0.21
	c-0.26-0.25-0.59-0.1-0.81-0.03c-1.53,0.66-2.97,1.43-4.44,2.31c0.38,0.77,0.87,0.85,1.53,0.56c0.66-0.3,1.33-0.69,1.99-0.99
	c0.33-0.15,0.67-0.4,1.1-0.53c0.33-0.15,0.41-0.03,0.56,0.3c0.25,0.34,0.03,0.41-0.18,0.48c-0.64,0.2-1.2,0.51-1.84,0.71
	c-0.54,0.21-0.97,0.35-1.36,0.89c0.79,0.74,1.6,0.77,2.57,0.42c1.18-0.41,2.42-0.51,3.6-0.93c1.18-0.41,2.25-0.74,3.48-0.84
	c0.94-0.15,1.81-0.51,2.74-0.66c2.61-0.48,5.21-0.86,7.91-1.23c1.45-0.17,2.91-0.43,4.44-0.48c1.23-0.1,2.5-0.4,4.16-0.63
	c-1.18-0.8-1.99-1.44-2.81-1.98c-0.91-0.66-1.89-0.82-2.94-0.59c-2.12,0.56-4.52,0.37-6.39,1.88c-0.11,0.08-0.21,0.07-0.31,0.05
	c-1.35-0.43-2.38,0.32-3.55,0.63c-0.62,0.1-1.31,0.59-1.99,0.38l0,0c0.39-0.54,1-0.54,1.43-0.68c0.85-0.26,1.61-0.55,1.86-1.42
	c0.15-0.28,0.39-0.54,0.72-0.69c0.11-0.08,0.31-0.05,0.39,0.07c0.08,0.11,0.07,0.21,0.03,0.41c-0.03,0.2-0.46,0.33-0.1,0.59
	c0.49,0.08,0.94-0.15,1.45-0.17c1.48-0.36,2.79-0.96,4.26-1.22s2.73-0.56,3.73-1.72c0.74-0.79,1.63-1.25,2.45-1.93
	C66.06,36.72,65.98,36.61,65.11,36.36z M30.2,69.2L30.2,69.2c0.1-0.7,0.6-0.9,1.1-1.3c0.2-0.2,0.6-0.1,0.7-0.5c0.3-1,1-1.9,1.1-3.1
	c-0.6-0.1-1,0.1-1.4,0.4c-0.7,0.5-1.4,1.1-2,1.8c-0.2,0.3-0.6,0.9-1,0.7c-0.7-0.4-1,0.1-1.4,0.4c-0.6,0.5-1.2,1.1-1.8,1.6
	c-0.3,0.3-0.7,0.7-1.2,0.6c-0.1-0.4,0.1-0.7,0.2-0.9c0.3-0.5,0.7-0.9,0.9-1.4c0.4-1.1,0.7,0.1,1.1,0c0.5-0.1,0.8-0.5,1.2-0.9
	c0.3-0.3,0.5-0.9,1-0.8c0.9,0.2,1.4-0.5,1.9-0.9c0.7-0.6,1.5-1.1,2.4-1.5c0.3-0.1,0.7-0.2,0.8-0.5c0.4-1.2,1.2-2.2,0.8-3.7
	c-0.2-0.7-0.4-1.1-1-1.5c-1.1-0.6-2.3-1-3.4-1.5c-2.2-1.1-4.6-1.8-6.9-2.7c-0.5-0.2-1.1-0.4-1.7-0.2c-0.2,0.5-0.2,1.1-0.1,1.6
	c0.1,2-0.5,3.6-2,4.9c-1.1,0.9-1.8,2.1-2.4,3.4c-0.6,1.4-0.5,1.6,1,2c0.6,0.1,0.9,0.3,1.1,1c0.3,1.2,1,1.7,2.3,1.7
	c0.8,0,1.6,0.1,2.3,0.5c0.2,0.1,0.3,0.3,0.2,0.5c-0.1,0.2-0.3,0.2-0.5,0.2c-0.2-0.1-0.5-0.2-0.7-0.2c-0.6-0.1-1.3-0.2-1.9,0
	c-0.7,0.2-0.9,0.6-0.6,1.3c0.1,0.2,0.3,0.4,0.4,0.6c0.3-0.1,0.4-0.7,0.8-0.4c0.3,0.3,0.6,0.7,0.7,1.1s0.3,1-0.3,1.4
	c-0.5,0.3-1,1-1.8,0.1c0,1.1-0.1,1.9,0,2.7c0.1,1.2,1,1.8,2.2,1.7c0.3-0.1,0.7-0.1,1-0.3c1.9-0.8,3.9-1.5,5.9-2.1
	c0.6-0.2,0.8-0.4,1-1c0.4-1.8,0.8-3.7,1.1-5.5C30.8,68.5,30.7,69.3,30.2,69.2z M35.2,61.3c-0.6,2.4-2,4.3-2.8,6.5
	c0,0.1-0.1,0.2-0.1,0.3c-0.2,1.9-0.9,3.8-1.4,5.6c-0.5,1.9-0.4,3.7-0.4,5.6c0,0.5,0.1,1.1,0.4,1.4c1.3,1.4,2.2,3.1,3.6,4.3
	c0.5,0.4,1,0.9,1.5,0c0.1-0.2,0.4-0.3,0.7-0.2c0.5,0.2,0.7-0.1,1-0.4c0.6-0.8,1.2-1.6,1.7-2.4c0.3-0.4,0.5-0.8,0.5-1.4
	c0.1-2.5,0.3-4.9-0.5-7.4c-0.2-0.8-0.2-1.7-0.4-2.5c-0.2-1.1-0.2-2.2-0.5-3.2c-0.4-1.5-0.9-3-0.9-4.6c0-0.4,0-0.8-0.5-0.8
	C36.5,62.1,36.2,61.4,35.2,61.3z M43.3,21.4c-0.4,0-0.5,0.3-0.7,0.5c-0.8,0.8-1.5,1.6-2.4,2.3c-2.1,1.8-4,3.7-5.6,5.9
	c-2,2.6-3.8,5.5-5.7,8.2c-0.5,0.7-0.6,1.7-1.3,2.3c0.3,1.2-0.8,1.9-1.1,2.9c-0.1,0.3-0.2,0.7-0.3,1c-0.2,0.4-0.1,0.7,0.3,0.9
	c0.3,0.1,0.6,0.4,1,0.1c0.3-0.2,0.5-0.5,0.3-0.9c-0.3-0.5,0.1-0.9,0.2-1.3c0.3,0.2,0.1,0.6,0.5,0.7c1-0.8,1.6-2,2.3-3.1
	c0.9-1.4,2.2-2.7,2.6-4.5c0.1-0.3,0.2-0.6,0.7-0.6c0.4,0,0.6-0.4,0.8-0.7c0.6-0.9,1.4-1.6,1.7-2.6c0.1-0.3,0.3-0.7,0.5-0.7
	c0.9,0.1,1.1-0.7,1.4-1.1c0.7-1.2,1.7-2.1,2.6-3.2c0.2-0.2,0.4-0.4,0.6-0.7c0.2-0.4,0.4-0.8,0.5-1.2c0.2-0.7,0.6,0.3,0.9-0.2
	c0.6-0.8,1.3-1.4,1.5-2.5c0.2-0.9,0.5-1.7,0.8-2.6c0.1-0.3,0.4-0.7-0.1-1.2c-0.5,0.7-1.5,1-1.1,2.2c0.2,0.6-0.3,1.4-1.2,1.6
	C42.7,22.3,43.5,21.9,43.3,21.4z M27,39.8c0.2-0.3,0.3-0.4,0.4-0.5c0.6-1.2,1.1-2.3,1.7-3.5c0.4-0.9,0.7-1.9,1.4-2.5
	c0.7-0.6,1.5-1,1.5-2c1-0.1,1.2-1.1,1.7-1.8c0.2-0.3,0.3-0.6,0.1-1c-0.2-0.3,0-0.7,0.3-0.9c0.2-0.2,0.2,0.7,0.6,0.2
	c0.8-1.2,1.9-2.3,2.4-3.8c0.3-0.9,0.8-1.7,1.5-2.4c0.9-0.8,1.4-1.8,2-2.8c0.5-0.8,0.5-1.7,0.3-2.4c-0.6-0.3-0.3,0.4-0.8,0.2
	c0-0.5,0.2-0.9,0.4-1.3c0.3-0.5,0.8-1.1,0.2-1.4c-0.6-0.3-0.8,0.5-1.2,0.8c-0.2,0.2-0.4,0.5-0.3,0.8c0.2,0.6-0.1,1.3-0.1,1.9
	c0,0.2,0,0.5,0.1,0.7c0.4,0.9,0.5,0.9,0.1,1.6c-0.9-1.1-0.3-2.4-0.5-3.7c-2,1.4-3.3,3.4-3.9,5.7c0,0.2-0.2,0.5-0.2,0.5
	c-0.9-0.2-0.9,0.6-1.2,1.1c-1.3,1.9-2,4.2-3,6.3c-0.4,0.8-0.9,1.5-1.1,2.4c-0.5,1.8-1.2,3.6-1.9,5.3C27.3,38.3,27,38.9,27,39.8z
	 M40.6,83.7c0.6-0.8,1.3-1.5,1.9-2.3C42.9,81,43,80.6,43,80c-0.1-2-0.1-4.1-0.8-6c-1-2.8-1.4-5.7-2.1-8.5c-0.2-0.9-0.5-1.8-0.7-2.7
	c-0.1-0.4-0.3-0.6-0.7-0.5c-0.4,0-0.5,0.3-0.5,0.6c0,0.5-0.1,1,0,1.5c0.8,2.9,1.1,5.8,1.6,8.7c0.3,1.7,0.6,3.4,0.5,5.1
	C40.4,80.1,40.5,81.9,40.6,83.7z M39.6,54c-2.1,0-3.4,0.9-4,3c-0.4,1.2-0.4,2.3,0.3,3.4c0.6,0.9,1.3,1.1,2.3,0.8
	c0.1,0,0.2-0.2,0.3,0c0.6,1.1,1.6,0.7,2.3,0.5c1.7-0.4,2.8-2.6,2.6-4.2C43,55.2,41.6,54,39.6,54z M40.2,62.8c0,1.3,0.5,2.5,0.7,3.8
	c0.3,2,0.7,4,1.4,5.9s1.1,3.8,1.1,5.8c0,0.4-0.1,0.9,0.4,1.2c0.5-0.9,1.4-1.6,1.2-2.7c-0.6-2.7-0.8-5.5-2-8
	c-0.4-0.8-0.8-1.7-1.1-2.6C41.6,65,40.9,63.9,40.2,62.8z M46,17.2c-1.3,0.2-2.3,0.9-3.4,1.2c-1.7,0.6-2.4,1.5-2.7,3.4
	c0,0.1-0.1,0.4-0.2,0.4c-1.1,0.2-1.3,1.3-1.7,2.1c-0.5,0.7-1,1.5-1.1,2.4c1-1.2,2-2.2,3.1-3.2c0.7-0.6,1.5-1,2-1.8
	c0.9-1.3,1.9-2.3,3.2-3C45.7,18.4,46.1,18.1,46,17.2z M43.7,59.3c1.5,0.2,2.8-0.3,4.2-0.3c0.3,0,0.5-0.2,0.6-0.4
	c0.3-0.2,0.5-0.5,0.4-0.9s-0.5-0.5-0.8-0.5c-0.5-0.1-1.1-0.1-1.6,0.1c-0.4,0.1-0.8,0.3-1.3,0.1c-0.2-0.5,0.2-0.9,0.4-1.4
	c0.2-0.4,0.3-0.8-0.1-1.3c-0.2-0.3-0.5-0.4-0.7,0s-0.4,0.8-0.5,1.2C44.2,57.1,44.1,58.2,43.7,59.3z M22.8,50.1c1-0.2,1.8-0.6,2.5-1
	c1-0.5,2-1,3-1.6c0.2-0.1,0.3-0.2,0.3-0.5c-0.1-0.2-0.3-0.3-0.4-0.4c-0.3-0.2-0.5,0-0.8,0.1c-0.4,0.3-0.8,0.5-1.3,0.7
	s-0.8,0.3-0.9-0.4c-0.1-0.6-0.5-0.2-0.6-0.1C23.8,48,23.4,49,22.8,50.1z M40,52.1c-0.1-0.4,0.2-1-0.6-1.1c-0.6-0.1-1.3-0.8-1.8-0.5
	c-0.6,0.5,0.1,1.2,0.1,1.9c0,0.2,0.1,0.4,0.2,0.6c0.1,0.2,0.2,0.3,0.4,0.4C39.2,53.6,40,53.1,40,52.1z M43.6,55.5
	c0.2-0.7,1.1-1.4,0.3-2.2S42.1,52.9,41,53C42,54,43.2,54.3,43.6,55.5z"/>
<path class="st0" d="M60.3,71.4c-0.4-1-0.3-1.7-0.2-2.4c0-0.2-0.2-0.5,0.2-0.5c0.2,0,0.4,0,0.6,0c-0.1,0.3,0.4,0.5,0.1,0.8
	C60.3,69.8,60.3,70.5,60.3,71.4z"/>
<path class="st0" d="M62.5,70.3c0.3-0.4,0.7-0.1,1.2-0.2c-0.2,0.4-0.3,0.7-0.5,1.1C62.8,70.9,62.5,70.7,62.5,70.3z"/>
<path class="st0" d="M56.9,66.5c-0.7,0-1.1-0.4-1.6-0.7C55.9,65.7,56.4,66.1,56.9,66.5z"/>
<path class="st0" d="M53.8,64.4c0,0.6,0.8,0.6,1,1.2c-0.8-0.2-1.3-0.5-1.5-1.2l0,0C53.4,64.5,53.6,64.5,53.8,64.4L53.8,64.4z"/>
<path class="st0" d="M56.9,68.9c-0.2-0.5-0.3-0.8,0.1-0.9c0.3-0.1,0.3,0.2,0.2,0.5C57.1,68.5,57.1,68.6,56.9,68.9z"/>
<path class="st0" d="M43.8,39.7c0.6,0,1.2,0,1.9,0c-0.7,0-1.3,0.9-2.1,0.3C43.7,39.9,43.8,39.8,43.8,39.7z"/>
<path class="st0" d="M38.9,37.5c-0.1,0.1-0.3,0.3-0.4,0.3c-0.2,0.1-0.5,0-0.4-0.2c0.2-0.4,0.5-0.8,1-0.3C39,37.4,39,37.4,38.9,37.5z
	"/>
<path class="st0" d="M61.5,61.7c-0.6-0.4-1.3-0.4-1.9-0.5c-0.4,0.5,0.5,0.6,0.2,0.8s-0.5,0.3-0.8,0.5c-0.1,0.1-0.6-0.2-0.6-0.5
	c0.1-0.7-0.3-1-0.9-1.1c-0.5-0.1-1-0.4-1.5,0c-0.3,0.2-1.1,0.4-1.2,0c-0.2-0.7-0.7-0.5-1-0.6c-0.5-0.1-1,0.1-1.5,0.3
	c-0.3,0.1-0.9-0.5-1.3-0.7c-0.1-0.1-0.3,0-0.4,0.1c-0.3,0.1-0.7,0.4-0.8-0.1c-0.1-0.3,0.4-0.4,0.7-0.4c0.9-0.1,1.9,0,2.8,0.2
	c3,0.6,6,1.1,9.1,1.6c1.4,0.3,2.8,0.6,4.2,0.9c0.2,0.1,0.5,0.2,0.7,0.1c0.9-0.4,1.2,0.3,1.5,0.9c-0.2,0.2-0.4,0.2-0.8,0.1
	C65.7,62.4,63.6,61.9,61.5,61.7L61.5,61.7z"/>
<path class="st0" d="M52.4,55.1c0.5-0.1,0.9-0.2,1.4-0.5c0.6-0.6,0.6-0.4,1.7-0.3c0.5,0.1,1.3,0,1.7-0.3c0.6-0.5,1.1-0.3,1.6-0.4
	c1.3-0.2,2.5-0.3,3.7-0.7c0,0.1,0.1,0.2,0.1,0.3c-1.3,0.4-2.5,1.1-3.8,1.1c-1.6,0.1-3.1,0.7-4.7,0.8C53.6,55.1,53,55.3,52.4,55.1
	C52.4,55,52.4,55.1,52.4,55.1z"/>
<path class="st0" d="M55.6,50.6c3.1-0.7,6.2-1.7,9.4-1.8C61.9,49.4,58.9,50.4,55.6,50.6z"/>
<path class="st0" d="M64.1,52.8c0.7-0.6,1.4-0.7,2.1-0.9c0.5-0.1,1-0.2,1.4-0.4c1.3-0.4,2.6-0.2,3.8,0.4c-1.2-0.1-2.4,0.1-3.6,0.3
	C66.7,52.4,65.4,52.6,64.1,52.8z"/>
<path class="st0" d="M56.6,55.9c1.3-0.2,2.5,0,3.8,0.1c-0.1,0.6-0.6,0.6-0.9,0.5c-0.9-0.2-1.7-0.2-2.6-0.3
	C56.6,56.3,56.6,56.1,56.6,55.9L56.6,55.9z"/>
<path class="st0" d="M52.9,55.9c1.2-0.1,2.4-0.2,3.6,0l0,0c-0.3,0.3-0.6,0.4-1,0.4C54.7,56.2,53.8,56,52.9,55.9L52.9,55.9z"/>
<path class="st0" d="M70.4,66.8c-0.6,0.2-1,0.1-1.3-0.4c-0.1-0.1,0-0.3,0.2-0.3C69.9,65.9,70.2,66.3,70.4,66.8z"/>
<path class="st0" d="M71.4,61.8c-0.6,0.7-1.1,0.5-1.6,0.5C70.2,61.6,70.7,61.9,71.4,61.8z"/>
<path class="st0" d="M61.1,45.6c0.1-0.4-0.4-0.8,0.1-1.1c0.2-0.1,0.4,0,0.5,0.2C61.9,45.1,61.4,45.3,61.1,45.6z"/>
<path class="st0" d="M70.8,55.5c-0.2,0.4-0.4,0.5-0.7,0.5c-0.2,0-0.4,0-0.4-0.2c-0.1-0.4,0.3-0.3,0.5-0.3
	C70.3,55.5,70.5,55.5,70.8,55.5z"/>
<path class="st0" d="M64.6,44c0.1-0.4,0.1-0.8,0.5-1l0.2,0.1C65.5,43.7,64.9,43.8,64.6,44z"/>
<path class="st0" d="M61.5,61.7c0.1,0.2,0.5,0.4,0.2,0.7c-0.2,0.2-0.5,0.4-0.7,0.1c-0.2-0.2,0.1-0.4,0.3-0.5
	C61.3,61.9,61.4,61.8,61.5,61.7L61.5,61.7z"/>
<path class="st0" d="M55.9,62.6c0.2,0.1,0.5,0.1,0.5,0.4c0,0.2-0.2,0.2-0.3,0.2c-0.2,0-0.4-0.1-0.4-0.3S55.7,62.6,55.9,62.6z"/>
<path class="st0" d="M69.5,53.5c0.6-0.3,1.1-0.1,1.5,0C70.6,53.7,70.1,53.7,69.5,53.5z"/>
<path class="st0" d="M65.7,65.4c0.5,0.1,0.9,0.3,1.2,0.6C66.3,66.1,66.3,66.1,65.7,65.4z"/>
<path class="st0" d="M64.2,55.1c-0.6,0.3-0.8-0.4-1.3-0.3C63.4,54.5,63.8,54.5,64.2,55.1z"/>
<path class="st0" d="M67.3,55c-0.3-0.4-0.8,0-1.2-0.3C66.7,54.3,67,54.9,67.3,55L67.3,55z"/>
<path class="st0" d="M67.3,55c0.4,0,0.7-0.3,1.1-0.2c0.2,0,0.3,0.1,0.3,0.3s-0.2,0.2-0.3,0.2C68,55.3,67.7,55,67.3,55L67.3,55z"/>
<path class="st0" d="M64.4,47.3c-0.4,0.2-0.7,0.5-1.2,0.3C63.6,47.3,63.8,47.1,64.4,47.3z"/>
<path class="st0" d="M65.8,63.4c0,0.2-0.1,0.3-0.2,0.3c-0.2,0-0.4,0.1-0.5-0.2c-0.1-0.2,0.1-0.3,0.2-0.3
	C65.5,63.2,65.7,63.2,65.8,63.4z"/>
<path class="st0" d="M51.6,54.5c0.2-0.5,0.5-0.5,0.9-0.5C52.2,54.4,51.9,54.5,51.6,54.5z"/>
<path class="st0" d="M24.4,57.1c1.4,0.4,2.9,0.8,4.2,1.2c0.1,0.4-0.1,0.5-0.2,0.5c-1.3-0.5-2,0.1-2.4,1.4c0.9,0.2,1.7-0.8,2.7-0.5
	c0.1,0.5-0.2,0.5-0.5,0.6c-1.6,0.5-3.2,0.9-4.8,1.6c-0.3,0.1-0.6,0.2-0.5,0.6c0.1,0.3,0.1,0.6,0.5,0.6c1.1,0.1,1.4,1.4,2.4,1.7
	c0.4,0.1-0.2,0.7,0.3,1.1c1.1-0.6,2.1-1.5,3.1-2.2c0.4-0.3,0.7-0.7,1.4-0.5c0.6,0.2,0.8-0.8,1.5-0.8c-0.3,1.1-1.2,1.8-2.4,1.8
	c-0.4,0-0.6,0.3-0.9,0.5c-0.9,0.7-1.7,1.5-2.8,2c-1.1,0.6-1.2,0.5-1.8-0.5c-0.4-0.6-0.6-1.3-1.6-1.3c-0.4,0-0.4-0.6-0.5-1
	c0-0.4-0.3-0.8-0.4-1.1c-0.3-0.5-0.7,0-1.1-0.1c-0.3,0-0.6,0-0.6-0.3c-0.2-0.8-0.1-1.6,0.3-2.3c0.2-0.4,0.5-0.1,0.7,0.1
	c0.2,0.3,0.4,0.7,0.7,1c0.3,0.3,0.7,0.5,1.2,0.2s0.1-0.6,0.1-0.9c0.1-0.5,0.2-1,0.2-1.5c0.2-1.5,0.2-1.5-1.3-1.6
	c0.5-1.4,1.8-2.2,3.3-2.2s2.9,0.7,4,1.7c0.2,0.2,0.4,0.5,0.2,0.8C29.3,58,29,58,28.7,57.8c-0.4-0.2-0.9-0.4-1.3-0.7
	c-1-0.7-2-0.5-3-0.4C24.4,56.9,24.4,57,24.4,57.1z M25.7,58.9c-0.1-0.2-0.1-0.4-0.3-0.4c-0.2,0-0.2,0.3-0.2,0.5s0.1,0.4,0.3,0.4
	C25.7,59.4,25.7,59.1,25.7,58.9z"/>
<path class="st0" d="M19.3,65.3c0.5-1.1,0.5-1.1-0.4-1.2c-0.1,0-0.3,0-0.4,0c-0.2-0.1-0.3-0.2-0.3-0.4s0.2-0.4,0.4-0.4
	c0.8-0.1,1.5,0.2,2.1,0.7c0.3,0.2,0.3,0.6,0.2,1C20.5,65.5,20,65.4,19.3,65.3z"/>
<path class="st0" d="M24.9,63c1.1-1.3,2.6-1.6,4.2-0.7C27.4,62.2,26.2,62.7,24.9,63z"/>
<path class="st0" d="M34.2,60.9c-0.3,0.6-1,0.7-1.3,1.2c-0.1-0.1-0.2-0.2-0.2-0.3c0.4-0.4,0.9-0.8,1.3-1.2
	C34.1,60.7,34.2,60.8,34.2,60.9z"/>
<path class="st0" d="M30.2,69.2c-0.1,0.6-0.5,1-0.8,1.4C29.3,70,29.5,69.5,30.2,69.2L30.2,69.2z"/>
<path class="st0" d="M49.6,44.4c-0.2,0.6-0.9,0.6-1.3,0.9c-0.3,0.2-0.9,0.3-0.8,0.9c0.1,0.3-0.1,0.2-0.2,0.2
	c-1.5-0.3-2.5,0.6-3.7,1.1c-0.2,0.1-0.3,0.2-0.6-0.1C45.1,46.2,47.3,45.3,49.6,44.4C49.6,44.5,49.6,44.4,49.6,44.4z"/>
<path class="st0" d="M49.8,42.1c-1.1,1-2.1,2-3.2,2.9C47.3,43.5,48.7,42.1,49.8,42.1z"/>
<path class="st0" d="M49.8,43.5c0.2-0.7,0.5-1.3,1.1-1.6c0.8-0.5,0.8-1.8,2.2-2.2C52,41.2,51,42.4,49.8,43.5z"/>
<path class="st0" d="M62.2,35.5c-0.5,1.3-1.7,1.9-2.7,3.1C59.9,36.9,61.1,36.2,62.2,35.5L62.2,35.5z"/>
<path class="st0" d="M58.1,37c-0.4,0.6-0.6,1.4-1.7,1.6C57,37.8,57.5,37.3,58.1,37z"/>
<path class="st0" d="M54.3,39.4c0-0.8,0.6-1.2,1.2-1.8C55.4,38.5,54.7,38.8,54.3,39.4z"/>
<path class="st0" d="M52.3,44.3c0.4-0.1,0.9-0.6,1.6,0C53.2,44.3,52.8,44.3,52.3,44.3z"/>
<path class="st0" d="M44.4,45.2c0.2-0.3,0.3-0.7,0.8-0.8C45.5,44.6,45.5,44.6,44.4,45.2z"/>
<path class="st0" d="M62.2,41.5c0.1-0.3,0.3-0.3,0.5-0.3c0.1,0,0.3,0,0.3,0.2c0,0.3-0.3,0.3-0.5,0.4C62.4,41.7,62.3,41.7,62.2,41.5z
	"/>
<path class="st0" d="M56.2,40.4c-0.3,0-0.4-0.1-0.3-0.2c0.1-0.1,0.3-0.3,0.5-0.3c0.1,0,0.2,0.1,0.1,0.2
	C56.3,40.2,56.2,40.3,56.2,40.4z"/>
<path class="st0" d="M43.2,48.3c0.3-0.4,0.6-0.3,1.1-0.1C43.8,48.2,43.5,48.3,43.2,48.3z"/>
<path class="st0" d="M34.5,78c-0.2-0.4-0.2-0.8-0.2-1.1c0.1-0.6,0.9-1.1,0.1-1.9c-0.2-0.2,0.3-0.8,0.5-1.2c0.1-0.2,0.1-0.4-0.1-0.5
	c-0.2,0-0.4,0.6-0.6,0.1c-0.1-0.3,0.1-0.6,0.2-0.9c0.2-0.7,0.8-1.3,0.1-2c-0.1-0.1,0-0.4,0.1-0.5c0.4-0.4,0.4-0.9,0.2-1.4
	c-0.1-0.3-0.1-0.6,0.1-0.9c0.3-0.4,0.4-0.9,0.1-1.4c-0.1-0.2-0.1-0.5,0-0.6c0.6-0.7,0.4-1.5,0.2-2.3c-0.2-1.1,0.3-1.3,1.8-1
	c0.1,0.4,0,0.7-0.3,0.9c-0.7,0.5-1,1.1-0.2,1.8c0.2,0.2,0.1,0.5-0.1,0.7c-0.2,0.3-0.6,0.4-0.6,0.8c0.1,0.2,0.3,0.3,0.5,0.4
	c0.7,0.4,0.7,0.6,0.2,1.1c-0.3,0.3-0.9,0.3-1,0.8c0.1,0.1,0.2,0.2,0.2,0.2c1.3,0,1.4,0.2,0.7,1.3c-0.2,0.4-0.3,0.6-0.1,1.1
	c0.2,0.3,0.2,0.8-0.1,1.1c-0.3,0.5-0.7,0.9,0.1,1.5c0.4,0.3-0.1,0.8-0.4,1.1c-0.2,0.2-0.5,0.4-0.2,0.6c0.3,0.3,0.6,0.5,0.4,1
	c-0.2,0.5-0.6,0.9-1.1,1.1C34.9,77.9,34.7,77.9,34.5,78z"/>
<path class="st0" d="M35.6,84.8c-0.7,0-1.1-0.5-0.9-1c0.4-0.7,0.4-1.2-0.1-1.9c-0.2-0.3-0.1-0.7,0.1-1c0.3-0.5,0.8-0.5,1.2-0.3
	c0.5,0.2,0.5,0.6,0.2,1c-0.3,0.5-0.6,1,0.3,1.3c0.4,0.2,0.2,0.6,0,0.9C36.3,84.3,36,84.7,35.6,84.8z"/>
<path class="st0" d="M36.5,78.7c0,0.6-0.8,1.5-1.5,1.5c-0.2,0-0.4-0.1-0.5-0.3c-0.2-0.6,0.1-0.9,0.4-1.3c0.3-0.4,0.6-0.5,1.1-0.4
	C36.3,78.3,36.5,78.4,36.5,78.7z"/>
<path class="st0" d="M38.3,33.4c0.1-0.8,0.7-1.1,1.2-1c1.5,0.2,2.8-0.8,4.3-0.9c0.1,0,0.3,0,0.4,0c-0.3,0.8-0.8,1.3-1.4,1
	c-0.8-0.4-1.3,0-1.9,0.2C40,32.9,39.2,33.3,38.3,33.4z"/>
<path class="st0" d="M42.2,34c-0.3,1.1-1.3,1.3-2.1,1.7c-0.3,0.1-0.5,0-0.6-0.3s0.1-0.4,0.4-0.4C40.8,34.9,41.2,33.9,42.2,34z"/>
<path class="st0" d="M50.2,23.7c-0.3,0.4-0.5,0.8-0.9,1.1c-0.2,0.1-0.5,0.1-0.6-0.1c-0.2-0.2-0.1-0.4,0.1-0.6
	C49.2,23.7,49.7,23.5,50.2,23.7z"/>
<path class="st0" d="M31.3,42.8c0.4-0.2,0.8-0.3,1.2-0.5c0.3-0.2,0.5-0.2,0.8,0.1c0.1,0.1,0.2,0.2,0,0.3c-0.2,0.2-0.4,0.7-0.8,0.4
	C32.2,42.8,31.7,43.2,31.3,42.8z"/>
<path class="st0" d="M34.6,39.6c0.1-0.8,0.6-0.9,1.4-0.8C35.6,39.4,35.1,39.5,34.6,39.6z"/>
<path class="st0" d="M45.1,30.3c0.2-0.2,0.4-0.4,0.6-0.3c0.1,0,0.1,0.1,0,0.2C45.6,30.4,45.3,30.4,45.1,30.3z"/>
<path class="st0" d="M48.3,26c-0.2,0.3-0.4,0.5-0.7,0.4l-0.1-0.2C47.8,25.8,48,26,48.3,26z"/>
<path class="st0" d="M46.4,27.5c-0.2,0.2-0.6,0.3-0.7,0.1c-0.1-0.3,0.3-0.2,0.5-0.2C46.3,27.4,46.3,27.5,46.4,27.5z"/>
<path class="st0" d="M36.5,39.9c-0.1,0.2-0.3,0.3-0.5,0.3L35.9,40c0.1-0.2,0.2-0.3,0.4-0.3C36.4,39.7,36.5,39.8,36.5,39.9z"/>
<path class="st0" d="M44.4,35.7c-0.3,0.6-0.6,0.9-1.1,1.2C43.5,36.3,43.6,35.9,44.4,35.7z"/>
<path class="st0" d="M55.4,26.4c0.8,0.1,1.2-0.8,2.4-0.7C56.8,26.2,56.2,26.7,55.4,26.4L55.4,26.4z"/>
<path class="st0" d="M46.9,35.5c-0.1-0.1-0.1-0.1-0.1-0.2c0-0.2,0.1-0.4,0.3-0.4c0,0,0.1,0.1,0.1,0.2C47.2,35.3,47.1,35.4,46.9,35.5
	z"/>
<path class="st0" d="M56.8,33.8c-2.1,0.8-4.3,1.3-6.6,2.2c0.6-0.9,0.5-1,3.2-1.5C54.5,34.3,55.5,33.5,56.8,33.8z"/>
<path class="st0" d="M36,47.6c0.7-0.4,0.5-1.4,1.4-1.6c0.8-0.1,1.5-0.3,2.4-0.4C39.2,46.3,37.6,47.1,36,47.6z"/>
<path class="st0" d="M38.7,44.5c1-0.4,2.1-0.8,3.1-1.2c0.1,0,0.3,0,0.4,0.1c0.1,0.2,0,0.4-0.1,0.5c-0.3,0.2-0.6,0.5-0.9,0.5
	C40.4,44.4,39.6,44.7,38.7,44.5z"/>
<path class="st0" d="M46.6,39.5c0.1-0.4,0.4-0.4,0.7-0.4c0.4-0.1,0.8-0.4,1.2,0.1c0.1,0.1,0.1,0.2,0,0.3c-0.3,0.4-0.7,0.5-1.2,0.5
	C47.1,39.8,46.8,39.8,46.6,39.5z"/>
<path class="st0" d="M51,37.6c0.3-1.2,1-0.7,1.6-0.9C52.2,37.3,51.6,37.3,51,37.6z"/>
<path class="st0" d="M58.8,31.9c-0.5,0.4-0.7,0.6-1.1,0.5C57.8,32,58.2,32,58.8,31.9z"/>
<path class="st0" d="M45.3,42c-0.1,0.2-0.3,0.4-0.6,0.3c-0.2,0-0.4-0.2-0.3-0.4c0.1-0.2,0.4-0.2,0.6-0.2
	C45.2,41.7,45.4,41.8,45.3,42z"/>
<path class="st0" d="M55.7,35.3c-0.1,0.3-0.5,0.5-0.6,0.3c-0.2-0.3,0.1-0.4,0.3-0.4C55.5,35.2,55.6,35.3,55.7,35.3z"/>
<path class="st0" d="M39.7,27.3c0.1-0.8,0.3-1.3,0.8-1.7C40.4,26.2,40.3,26.8,39.7,27.3z"/>
<path class="st0" d="M34.2,33c-0.6-0.7,0.1-1.1,0.3-1.8C34.8,32.1,34.7,32.5,34.2,33z"/>
<path class="st0" d="M31.5,36c-0.2-0.8,0.4-1.2,0.7-2C32.1,34.9,32.1,34.9,31.5,36z"/>
<path class="st0" d="M37.8,29.2c-0.2-0.7,0-1.1,0.4-1.6C38.4,28.2,38.1,28.6,37.8,29.2z"/>
<path class="st0" d="M30.3,40.6c-0.2-0.7,0.2-1,0.3-1.5C31,39.8,30.7,40.1,30.3,40.6z"/>
<path class="st0" d="M28.9,41c0.3,0.5,0,0.8-0.3,1.1C28.3,41.6,28.7,41.4,28.9,41z"/>
<path class="st0" d="M35.8,22.9c-0.2-0.8-0.3-1.7,0.3-2.6C36.3,21.3,35.7,22.1,35.8,22.9z"/>
<path class="st0" d="M37.2,20.1c0-0.8,0.2-1.3,0.5-2.2C37.7,19.1,37.7,19.1,37.2,20.1z"/>
<path class="st0" d="M31.8,29.2c0.2,0.8-0.6,1.1-0.6,1.6C31.2,30.2,31,29.6,31.8,29.2z"/>
<path class="st0" d="M35.6,25.9c-0.1-0.6,0-1,0.5-1.5C36.1,25,35.9,25.5,35.6,25.9z"/>
<path class="st0" d="M33.4,25.7c0.3,0.6-0.3,0.8-0.3,1.4C33,26.5,32.8,26,33.4,25.7z"/>
<path class="st0" d="M41.9,57.7c0,1.6-1.9,3.2-3.4,2.8s-2.3-2.4-1.4-3.7c0.5-0.8,1.3-1.3,2.3-1.5C41,55,41.9,55.9,41.9,57.7z
	 M39,59.8c1.2,0,2.4-0.8,2.4-1.7c0-1.3-0.8-2.3-1.9-2.3c-1.2,0-2.2,1.1-2.2,2.2C37.3,59,38,59.7,39,59.8z"/>
<path class="st0" d="M39.1,58.7c-0.4,0-0.6-0.2-0.7-0.6c-0.1-0.5,0.7-1.2,1.1-1.1c0.4,0,0.6,0.3,0.6,0.7
	C40.1,58.2,39.6,58.7,39.1,58.7z"/>
</svg>
