<?xml version="1.0" encoding="utf-8"?>
<!-- Generator: Adobe Illustrator 24.0.3, SVG Export Plug-In . SVG Version: 6.00 Build 0)  -->
<svg version="1.1" id="Layer_1" xmlns="http://www.w3.org/2000/svg" xmlns:xlink="http://www.w3.org/1999/xlink" x="0px" y="0px"
	 viewBox="0 0 1280 1024" style="enable-background:new 0 0 1280 1024;" xml:space="preserve">
<style type="text/css">
	.Drop_x0020_Shadow{fill:none;}
	.Outer_x0020_Glow_x0020_5_x0020_pt{fill:none;}
	.Jive_GS{fill:#A6D0E4;}
	.st0{fill:#8B0F00;stroke:#C49E9B;stroke-miterlimit:10;}
	.st1{fill:none;}
</style>
<g>
	<path class="st0" d="M542.78,435.66c-2.79,0.97-4.65,0.48-6.04-1.94c-0.46-0.48,0-1.45,0.93-1.45
		C540.46,431.29,541.85,433.23,542.78,435.66z"/>
	<path class="st0" d="M547.42,411.41c-2.79,3.39-5.11,2.42-7.43,2.42C541.85,410.44,544.17,411.89,547.42,411.41z"/>
	<path class="st0" d="M544.64,382.36c-0.93,1.94-1.86,2.42-3.25,2.42c-0.93,0-1.86,0-1.86-0.97c-0.46-1.94,1.39-1.45,2.32-1.45
		C542.31,382.36,543.24,382.36,544.64,382.36z"/>
	<path class="st0" d="M538.6,371.15c2.79-1.45,5.11-0.48,6.97,0C543.71,372.12,541.38,372.12,538.6,371.15z"/>
	<g>
		<path class="st0" d="M668.76,708.87c-3.39-8.62-2.54-14.66-1.7-20.69c0-1.72-1.7-4.31,1.7-4.31c1.7,0,3.39,0,5.09,0
			c-0.85,2.59,3.39,4.31,0.85,6.9C668.76,695.07,668.76,701.11,668.76,708.87z"/>
		<path class="st0" d="M687.42,698.04c2.54-3.45,5.94-0.86,10.18-1.72c-1.7,3.45-2.54,6.03-4.24,9.48
			C689.96,703.21,687.42,701.49,687.42,698.04z"/>
		<path class="st0" d="M639.92,665.28c-5.94,0-9.33-3.45-13.57-6.03C631.44,658.38,635.68,661.83,639.92,665.28z"/>
		<path class="st0" d="M613.63,647.18c0,5.17,6.79,5.17,8.48,10.35c-6.79-1.72-11.03-4.31-12.72-10.35l0,0
			C610.24,648.04,611.93,648.04,613.63,647.18L613.63,647.18z"/>
		<path class="st0" d="M639.92,685.97c-1.7-4.31-2.54-6.9,0.85-7.76c2.54-0.86,2.54,1.72,1.7,4.31
			C641.62,682.52,641.62,683.39,639.92,685.97z"/>
		<path class="st0" d="M598.33,567c4.24-0.86,7.63-1.72,11.87-4.31c5.09-5.17,5.09-3.45,14.42-2.59c4.24,0.86,11.03,0,14.42-2.59
			c5.09-4.31,9.33-2.59,13.57-3.45c11.03-1.72,21.2-2.59,31.38-6.04c0,0.86,0.85,1.72,0.85,2.59c-11.03,3.45-21.2,9.48-32.23,9.48
			c-13.57,0.86-26.29,6.03-39.86,6.9C608.51,567,603.42,568.72,598.33,567C598.33,566.13,598.33,567,598.33,567z"/>
		<path class="st0" d="M628.9,528.2c26.29-6.03,52.58-14.66,79.73-15.52C682.33,517.85,656.88,526.48,628.9,528.2z"/>
		<path class="st0" d="M700.99,547.17c5.94-5.17,11.87-6.03,17.81-7.76c4.24-0.86,8.48-1.72,11.87-3.45
			c11.03-3.45,22.05-1.72,32.23,3.45c-10.18-0.86-20.36,0.86-30.53,2.59C723.04,543.72,712.01,545.44,700.99,547.17z"/>
		<path class="st0" d="M637.38,573.89c11.03-1.72,21.2,0,32.23,0.86c-0.85,5.17-5.09,5.17-7.63,4.31
			c-7.63-1.72-14.42-1.72-22.05-2.59C637.38,577.34,637.38,575.62,637.38,573.89L637.38,573.89z"/>
		<path class="st0" d="M606,573.89c10.18-0.86,20.36-1.72,30.53,0l0,0c-2.54,2.59-5.09,3.45-8.48,3.45
			C621.26,576.48,613.63,574.76,606,573.89L606,573.89z"/>
		<path class="st0" d="M675.54,485.09c0.85-3.45-3.39-6.9,0.85-9.48c1.7-0.86,3.39,0,4.24,1.72
			C682.33,480.78,678.09,482.51,675.54,485.09z"/>
		<path class="st0" d="M705.23,471.3c0.85-3.45,0.85-6.9,4.24-8.62l1.7,0.86C712.86,468.71,707.77,469.57,705.23,471.3z"/>
		<path class="st0" d="M678.94,623.9c0.85,1.72,4.24,3.45,1.7,6.03c-1.7,1.72-4.24,3.45-5.94,0.86c-1.7-1.72,0.85-3.45,2.54-4.31
			C677.24,625.62,678.09,624.76,678.94,623.9L678.94,623.9z"/>
		<path class="st0" d="M631.44,631.66c1.7,0.86,4.24,0.86,4.24,3.45c0,1.72-1.7,1.72-2.54,1.72c-1.7,0-3.39-0.86-3.39-2.59
			S629.74,631.66,631.44,631.66z"/>
		<path class="st0" d="M714.56,655.8c4.24,0.86,7.63,2.59,10.18,5.17C719.65,661.83,719.65,661.83,714.56,655.8z"/>
		<path class="st0" d="M701.84,567c-5.09,2.59-6.79-3.45-11.03-2.59C695.05,561.82,698.44,561.82,701.84,567z"/>
		<path class="st0" d="M728.13,566.13c-2.54-3.45-6.79,0-10.18-2.59C723.04,560.1,725.58,565.27,728.13,566.13L728.13,566.13z"/>
		<path class="st0" d="M728.13,566.13c3.39,0,5.94-2.59,9.33-1.72c1.7,0,2.54,0.86,2.54,2.59c0,1.72-1.7,1.72-2.54,1.72
			C734.07,568.72,731.52,566.13,728.13,566.13L728.13,566.13z"/>
		<path class="st0" d="M703.53,499.75c-3.39,1.72-5.94,4.31-10.18,2.59C696.75,499.75,698.44,498.03,703.53,499.75z"/>
		<path class="st0" d="M715.41,638.55c0,1.72-0.85,2.59-1.7,2.59c-1.7,0-3.39,0.86-4.24-1.72c-0.85-1.72,0.85-2.59,1.7-2.59
			C712.86,636.83,714.56,636.83,715.41,638.55z"/>
		<path class="st0" d="M594.97,561.82c1.7-4.31,4.24-4.31,7.63-4.31C600.06,560.96,597.52,561.82,594.97,561.82z"/>
		<path class="st0" d="M684.87,398.02c-4.24,11.21-14.42,16.38-22.9,26.73C665.37,410.09,675.54,404.05,684.87,398.02L684.87,398.02
			z"/>
		<path class="st0" d="M650.1,410.95c-3.39,5.17-5.09,12.07-14.42,13.79C640.77,417.85,645.01,413.54,650.1,410.95z"/>
		<path class="st0" d="M617.87,431.64c0-6.9,5.09-10.35,10.18-15.52C627.2,423.88,621.26,426.47,617.87,431.64z"/>
		<path class="st0" d="M600.91,472.43c3.39-0.86,7.63-5.17,13.57,0C608.54,472.43,605.15,472.43,600.91,472.43z"/>
		<path class="st0" d="M684.87,449.75c0.85-2.59,2.54-2.59,4.24-2.59c0.85,0,2.54,0,2.54,1.72c0,2.59-2.54,2.59-4.24,3.45
			C686.57,451.47,685.72,451.47,684.87,449.75z"/>
		<path class="st0" d="M633.99,440.26c-2.54,0-3.39-0.86-2.54-1.72c0.85-0.86,2.54-2.59,4.24-2.59c0.85,0,1.7,0.86,0.85,1.72
			C634.83,438.54,633.99,439.4,633.99,440.26z"/>
		<path class="st0" d="M627.2,319.56c6.79,0.86,10.18-6.9,20.36-6.03C639.07,317.84,633.99,322.15,627.2,319.56L627.2,319.56z"/>
		<path class="st0" d="M656.04,366.98c-4.24,3.45-5.94,5.17-9.33,4.31C647.56,367.84,650.95,367.84,656.04,366.98z"/>
		<path class="st0" d="M629.74,396.29c-0.85,2.59-4.24,4.31-5.09,2.59c-1.7-2.59,0.85-3.45,2.54-3.45
			C628.05,395.43,628.9,396.29,629.74,396.29z"/>
		<g>
			<path class="st0" d="M721.28,683.65c-1.73,0.86-4.33-1.72-6.07,0c-3.47,3.45-5.2,3.45-6.93-0.86s-6.93-6.03-11.27-7.76
				c-6.93-3.45-14.73-0.86-20.8-7.76c-5.2-5.17-13.87-6.9-20.8-9.48c-12.13-4.31-23.4-10.35-37.27-6.9v0.86
				c3.47-2.59,3.47-5.17,0-6.9c-8.67-3.45-16.47-6.03-25.13-8.62c-2.6-0.86-6.07-1.72-8.67,1.72c9.53,6.03,20.8,6.03,29.47,13.79
				l0,0c-3.47,1.72-6.93-2.59-11.27-0.86c0,0.86-0.87,2.59,0,2.59c13.87,11.21,22.53,26.73,32.07,40.52
				c4.33,6.9,13,13.79,13.87,20.69c1.73,7.76,4.33,15.52,6.07,22.42c4.33,16.38,7.8,32.76,10.4,49.14c0,2.59,0.87,5.17,0,7.76
				c0,3.45,1.73,7.76-2.6,9.48c-4.33,1.72-6.93-2.59-8.67-6.03c-5.2-9.48-12.13-16.38-21.67-23.28c-5.2,15.52-2.6,31.9-11.27,47.42
				c-13-11.21-9.53-31.04-23.4-41.38c-5.2,5.17-3.47,11.21-6.07,17.24c-1.73,3.45-1.73,7.76-4.33,10.35
				c-1.73,2.59-4.33,2.59-6.07-0.86c-0.87-2.59-1.73-6.03-2.6-8.62c-4.33-20.69-13.87-39.66-26-56.9c-1.73-3.45-4.33-6.03-9.53-6.9
				c-0.87,7.76,0.87,15.52,2.6,22.42c8.67,29.31,19.93,56.04,40.73,79.32c0.87,0.86,1.73,1.72,2.6,2.59
				c0.87,1.72,2.6,3.45,1.73,6.03c-1.73,2.59-3.47,1.72-6.07,1.72c-8.67-2.59-18.2-4.31-27.73-5.17c-9.53-0.86-15.6-8.62-23.4-14.66
				c0.87,19.83,4.33,37.07,8.67,55.18c0.87,4.31,5.2,8.62,0.87,12.07c-3.47,2.59-6.93-1.72-10.4-3.45
				c-9.53-5.17-19.07-10.35-26-18.97c-0.87-1.72-2.6-2.59-5.2-0.86c-0.87,10.35,0.87,21.55,4.33,31.9
				c1.73,6.9,6.93,15.52,1.73,18.97c-5.2,4.31-12.13-2.59-18.2-6.9c-8.67-6.03-18.2-10.35-26.87-18.1
				c-16.47-14.66-27.73-33.62-36.4-53.45c-3.47-7.76-4.33-15.52-11.27-20.69c-3.47-2.59-6.07-7.76-4.33-11.21
				c4.33-9.48,0-17.24,0-25.86c0-7.76,0-16.38,0-24.14c0-6.9-1.73-8.62-8.67-6.03c-13,4.31-26,9.48-39,13.79
				c-4.33,1.72-8.67,3.45-13,5.17c-16.47,5.17-28.6-2.59-29.47-18.97c-0.87-7.76-0.87-15.52,0.87-23.28c1.73-8.62,5.2-17.24-2.6-25
				c-0.87-0.86-1.73-2.59-0.87-3.45c6.93-12.93-6.93-18.1-9.53-27.59c-0.87-3.45-3.47-3.45-6.07-3.45
				c-4.33-0.86-8.67-1.72-11.27-5.17c-3.47-3.45-5.2-6.9-3.47-12.93c7.8-17.24,16.47-33.62,31.2-46.56
				c7.8-6.03,11.27-13.79,11.27-23.28c0-6.9,0.87-14.66-0.87-21.55c-2.6-10.35,0.87-18.97,6.07-27.59
				c7.8-12.93,15.6-25.86,22.53-38.8c4.33-7.76,7.8-14.66,9.53-23.28c6.93-31.9,19.07-62.94,31.2-93.97
				c11.27-26.73,22.53-52.59,35.53-78.45c18.2-35.35,41.6-66.38,71.07-93.11c22.53-20.69,46.8-38.8,69.33-59.49
				c5.2-4.31,11.27-7.76,18.2-11.21c1.73,6.03-0.87,11.21-2.6,15.52c-6.93,13.79-12.13,28.45-17.33,43.11
				c-4.33,12.07-2.6,25-10.4,35.35c-0.87,0.86-0.87,3.45,0.87,4.31c1.73,0.86,3.47,0,4.33-0.86c13-6.03,25.13-13.79,36.4-21.55
				c8.67-6.03,17.33-12.07,26.87-18.1c6.07-3.45,13-2.59,18.2-6.9c3.47,3.45,0.87,6.03-0.87,8.62
				c-6.93,14.66-13.87,28.45-20.8,43.11c-1.73,5.17-6.93,11.21-3.47,15.52c5.2,4.31,11.27-0.86,16.47-3.45
				c14.73-6.9,30.33-13.79,45.93-19.83c4.33-1.72,9.53-4.31,13-7.76c5.2-4.31,10.4-3.45,15.6,1.72c-19.07,25-34.67,52.59-49.4,81.04
				c3.47,2.59,6.07,0.86,8.67,0c14.73-5.17,29.47-10.35,43.33-16.38c8.67-3.45,16.47-9.48,24.27-14.66c3.47-2.59,6.07-2.59,8.67,0
				c3.47,3.45,2.6,5.17,0,8.62c-8.67,13.79-17.33,27.59-26,41.38c-1.73,2.59-3.47,4.31-1.73,6.9c1.73,3.45,5.2,2.59,7.8,1.72
				c13.87-2.59,26.87-6.03,40.73-8.62c6.93-1.72,13-4.31,21.67-3.45c-10.4,18.97-26,32.76-33.8,52.59
				c22.53,2.59,44.2,1.72,67.6,3.45c-13.87,18.1-32.07,30.17-45.07,50c26,2.59,50.27,5.17,75.4,12.93
				c-15.6,12.07-30.33,22.42-45.07,35.35c20.8,5.17,40.73,3.45,60.67,12.07c-13,13.79-30.33,21.55-44.2,35.35
				c18.2,12.93,39.87,18.97,60.67,28.45c-16.47,12.93-35.53,17.24-52.87,28.45c11.27,3.45,19.07,6.03,27.73,8.62
				c1.73,0.86,3.47,0.86,5.2,1.72c4.33,2.59,12.13,3.45,12.13,9.48c0,6.9-7.8,6.03-13,7.76c-16.47,6.03-32.07,12.07-48.53,16.38
				c-6.07,1.72-11.27,4.31-17.33,4.31c-2.6,0-4.33,0.86-5.2,2.59c-0.87,2.59,1.73,3.45,3.47,5.17c14.73,8.62,29.47,17.24,44.2,26.73
				c8.67,5.17,17.33,11.21,25.13,18.1c2.6,1.72,2.6,4.31,1.73,6.9c-0.87,1.72-2.6,2.59-4.33,2.59c-22.53,0-45.07,6.03-69.33,4.31
				c2.6,7.76,8.67,12.07,13,17.24c5.2,5.17,11.27,10.35,17.33,15.52c2.6,2.59,5.2,5.17,4.33,8.62c-1.73,4.31-5.2,5.17-9.53,5.17
				c-3.47,0.86-6.07-0.86-8.67-1.72c-18.2-6.03-36.4-8.62-55.47-12.93c-2.6-0.86-5.2,0-7.8,2.59c7.8,11.21,13.87,25,24.27,35.35
				c1.73,1.72,2.6,3.45,3.47,5.17c2.6,5.17,0.87,8.62-5.2,7.76c-4.33,0-7.8-1.72-11.27-3.45c-19.93-6.03-39-14.66-57.2-22.42
				c-6.07-2.59-9.53-5.17-6.93-12.93c0.87-4.31-0.87-9.48-1.73-13.79c-0.87-7.76,1.73-11.21,10.4-10.35
				c6.93,0.86,14.73,2.59,21.67,3.45c1.73,0,4.33,0,6.07-0.86c0-1.72,0-2.59-0.87-3.45c-4.33-1.72-5.2-1.72-9.53-8.62l-0.87-0.86
				c2.6-6.03-12.13,2.59-6.93-6.9C724.74,691.41,717.81,687.97,721.28,683.65c1.73-5.17,6.93-4.31,11.27-4.31
				c5.2,0,10.4,0.86,15.6,0.86c11.27,0,22.53,0.86,33.8-1.72c-2.6-6.9-6.93-8.62-10.4-11.21c-5.2-4.31-10.4-7.76-15.6-11.21
				c-8.67-6.9-8.67-12.93,2.6-16.38c13-4.31,24.27-10.35,36.4-15.52c-0.87-5.17-3.47-9.48-7.8-12.93
				c-4.33-3.45-8.67-6.9-12.13-11.21c-6.93-9.48-17.33-11.21-27.73-9.48c-10.4,0.86-19.93-2.59-30.33,0
				c-8.67-6.9-18.2-3.45-26.87-2.59c-3.47,0.86-6.93,0.86-6.07-3.45c0-2.59,0-6.9,6.07-6.03c20.8,1.72,41.6,2.59,61.53,4.31
				c6.93,0.86,13.87,0,19.93,5.17c2.6,1.72,5.2,1.72,6.93,0.86c10.4-4.31,21.67-7.76,31.2-16.38c-9.53-6.04-17.33-12.07-26-18.1
				c-3.47-2.59-6.93-4.31-6.07-8.62c0.87-4.31,4.33-6.03,7.8-7.76c3.47-0.86,6.93-2.59,10.4-4.31c3.47-1.72,6.93-3.45,13-6.03
				c-27.73-7.76-52.87-12.07-78.87-17.24c13,1.72,22.53-6.03,31.2-12.93s20.8-8.62,26-20.69c-14.73,0.86-28.6,5.17-42.47,8.62
				c-13,3.45-26,9.48-39.87,11.21c-12.13,1.72-24.27,3.45-35.53,6.03c-27.73,6.9-55.47,14.66-82.33,25
				c-5.2,2.59-11.27,4.31-19.07,5.17c7.8-5.17,13-7.76,19.07-11.21c7.8-5.17,15.6-11.21,25.13-12.93c0.87,0,1.73,0,1.73,0.86
				c-0.87,3.45-6.07,3.45-6.07,7.76c8.67-2.59,17.33-5.17,21.67-12.93c5.2-7.76,4.33-7.76,12.13-9.48c0.87,4.31-5.2,6.9-2.6,12.07
				c9.53-0.86,19.07-4.31,27.73-7.76c6.07-2.59,10.4-8.62,18.2-4.31c16.47-5.17,36.4-5.17,46.8-22.42h0.87
				c4.33,4.31-6.07,5.17-1.73,9.48c8.67-2.59,16.47-5.17,26.87-7.76c-5.2-4.31-9.53-3.45-13.87-3.45c-5.2,0-6.93-2.59-5.2-7.76
				c0.87-1.72,1.73-3.45,0-5.17c-5.2-0.86-11.27,0-17.33,1.72c-23.4,7.76-46.8,15.52-69.33,24.14c-32.07,11.21-65,23.28-97.07,35.35
				c-13,5.17-26,9.48-37.27,19.83c6.93,3.45,6.93,3.45,9.53,2.59c6.93-1.72,13.87-3.45,19.07-6.9c5.2-2.59,7.8-0.86,12.13,1.72
				c-7.8,3.45-14.73,6.03-21.67,8.62c-1.73,0.86-3.47,1.72-2.6,3.45c0.87,1.72,2.6,2.59,4.33,1.72c7.8-6.03,17.33-3.45,26-5.17
				c19.07-5.17,38.13-10.35,57.2-15.52c1.73-0.86,5.2-1.72,6.93,2.59c-6.93,5.17-14.73,6.03-22.53,8.62
				c-8.67,1.72-13.87,9.48-21.67,14.66c-0.87-4.31,5.2-5.17,3.47-9.48c-6.93,0.86-13.87,5.17-19.93,6.9c-6.07,2.59-13,4.31-20.8,6.9
				c5.2,6.9,12.13,11.21,18.2,15.52c3.47,2.59,9.53-2.59,14.73-3.45c4.33-0.86,9.53-0.86,13.87-0.86c4.33,0,8.67,0,13-1.72l0,0
				c1.73,2.59-5.2,9.48,4.33,7.76l0,0c-0.87,3.45-4.33,3.45-6.93,4.31c-7.8,0.86-15.6,1.72-23.4,2.59c-1.73,0-3.47,0-3.47,2.59
				c0,1.72,0.87,2.59,1.73,3.45c6.07,6.04,6.07,6.04,0.87,12.93c-1.73,1.72-3.47,4.31-5.2,6.03c-2.6,4.31-5.2,8.62-9.53,0.86
				c-0.87-1.72-3.47,0-4.33,0c-7.8,0-15.6,2.59-22.53,3.45c-7.8,0.86-12.13,6.04-15.6,12.93c15.6,0.86,15.6,0.86,26.87-6.03
				c1.73-0.86,3.47-1.72,6.07-2.59c3.47-1.72,6.93-0.86,9.53,1.72c4.33,2.59,0,5.17-0.87,7.76c-1.73,4.31,0,6.9,5.2,5.17
				c6.93-1.72,13.87,0,19.93,0.86c19.93,4.31,39,12.07,58.07,18.97c6.07,1.72,12.13,1.72,17.33,4.31
				c13.87,7.76,28.6,13.79,43.33,19.83C713.48,676.76,717.81,679.34,721.28,683.65z M453.33,537.68c2.54-6.9,13.57-5.17,15.27-13.79
				c-11.87-8.62-22.9-12.07-33.08,0.86c-0.85,0.86-1.7,0.86-1.7,1.72c-3.39,2.59-5.94,1.72-6.79-3.45
				c-0.85-4.31-0.85-9.48-2.54-13.79c-1.7-6.04-6.79-7.76-11.87-7.76s-3.39,6.03-4.24,9.48c-1.7,10.35,2.54,19.83,3.39,30.17
				c0.85,10.35,1.7,10.35,11.03,6.9C432.98,543.72,443.15,539.41,453.33,537.68c-11.87,10.35-27.14,12.93-41.56,18.97
				c-3.39,1.72-5.94-0.86-5.94-4.31c2.54-13.79-5.09-25.86-4.24-38.8c0-6.04-1.7-6.9-7.63-3.45c-14.42,8.62-28.84,17.24-44.95,22.42
				c-5.09,1.72-8.48,6.04-9.33,12.93c10.18,1.72,18.66,6.9,28.84,0c5.09-4.31,12.72-12.07,18.66-7.76
				c5.94,3.45,5.09,13.79,5.94,21.55c0,2.59,0,6.03,3.39,6.03c5.94,0,9.33,5.17,14.42,6.9c10.18,5.17,20.36,9.48,31.38,0
				c3.39-3.45,8.48-7.76,11.87-6.03c8.48,4.31,11.87-3.45,16.11-6.9c4.24-3.45,3.39-19.83-0.85-24.14
				c-5.09-4.31-8.48,1.72-11.87,3.45C455.88,536.82,455.03,536.82,453.33,537.68z M527.12,436.81
				c-11.03,2.59-16.96,11.21-23.75,17.24c1.7,3.45,6.79-2.59,6.79,5.17c-15.27-3.45-24.6,6.9-34.77,15.52
				c-9.33,8.62-18.66,18.1-27.14,26.73c-0.85,0.86-0.85,1.72-0.85,4.31c4.24,1.72,8.48,3.45,13.57,6.03
				c3.39,1.72,5.94,0.86,9.33-1.72c6.79-6.9,15.27-12.07,23.75-16.38c11.03-5.17,18.66-14.66,28.84-19.83
				c16.96-7.76,31.38-18.97,45.8-31.04c15.27-12.07,28.84-25,47.5-31.04c25.44-8.62,41.56-29.31,59.37-48.28
				c-8.48-5.17-16.96-1.72-24.6-2.59c-15.27-1.72-27.14,4.31-39.86,12.93c-19.51,12.93-36.47,29.31-57.67,40.52
				c-9.33,5.17-17.81,10.35-24.6,18.97C528.82,435.09,527.97,435.95,527.12,436.81z M566.83,355.73
				c-16.11,18.1-33.08,35.35-49.19,52.59c-11.03,12.07-26.29,21.55-31.38,38.8c-0.85,1.72-2.54,3.45-4.24,5.17c0,0-1.7,0-2.54,0
				c0-1.72,0-3.45,0-6.03c-7.63,6.9-16.11,11.21-22.05,18.1c-7.63,8.62-16.11,17.24-24.6,25.86c-5.94,6.03-5.94,7.76,1.7,11.21
				c5.09,1.72,7.63,0.86,11.03-2.59c5.94-6.9,13.57-12.93,18.66-20.69c0.85-1.72,3.39-5.17,5.09-5.17
				c10.18,0.86,15.27-7.76,21.2-13.79c7.63-6.9,14.42-14.66,22.05-20.69c5.94-6.03,14.42-9.48,17.81-18.1
				c0-0.86,2.54-1.72,3.39-1.72c5.94,5.17,9.33-1.72,12.72-3.45c29.68-19.83,58.52-42.24,89.9-59.49
				c9.33-5.17,10.18-17.24,14.42-25.86c0-0.86-0.85-1.72-0.85-1.72c-5.94,0-3.39-2.59-1.7-5.17c2.54-3.45-4.3,204.36-1.75,200.92
				c0.85-1.72,12.78-213.85,11.93-215.57c-0.85-2.59-3.39-2.59-5.94-1.72c-8.48,1.72-16.96,1.72-25.44,2.59
				c-11.03,0.86-20.36,4.31-27.14,12.93c-1.7,2.59-3.39,5.17-7.63,4.31c0-3.45,2.54-6.03,5.09-8.62
				c13.57-12.93,15.27-30.17,19.51-46.56c-14.42,18.1-22.9,38.8-33.93,60.35c5.09-0.86,5.94-5.17,10.18-5.17
				c0,6.9-7.63,8.62-9.33,16.38c16.96-7.76,32.23-15.52,47.5-23.28l0,0c-1.7,4.31-4.24,6.03-7.63,7.76
				C605,336.77,586.34,346.25,566.83,355.73c0.85-5.17-0.85-6.04-5.09-3.45c0-5.17,3.39-7.76,7.63-9.48s5.94-5.17,7.63-8.62
				c9.33-18.97,16.96-37.93,27.99-56.04c0.85-1.72,3.39-4.31,0.85-7.76c-16.11,7.76-32.23,14.66-48.34,24.14
				c-4.24,2.59-14.42,4.31-10.18,14.66c0.85,2.59-1.7,4.31-3.39,4.31c-7.63-0.86-12.72,4.31-16.96,9.48
				c-14.42,17.24-27.99,34.49-42.41,50.87c-4.24,5.17-4.24,8.62,3.39,14.66c-14.42-2.59-20.36,5.17-26.29,12.93
				c-3.39,4.31-5.94,7.76-9.33,12.07c-9.33,10.35-14.42,24.14-24.6,33.62c-4.24,4.31-5.94,11.21-9.33,16.38
				c5.09,5.17-0.85,6.9-3.39,10.35c-3.39,4.31-10.18,6.03-13.57,13.79c7.63-2.59,11.03,2.59,15.27,5.17
				c5.09,3.45,6.79,3.45,10.18-1.72c11.87-14.66,25.44-28.45,39.01-41.38c9.34-9.5,20.39-18.99,25.46-32.82
				c1.07-0.54,1.66-0.85,2.73-1.39c4.52,0.84,7.67-3.11,10.82-6.31c17.81-17.24,34.77-36.21,55.13-51.73
				C562.59,354.87,564.29,354.87,566.83,355.73z M700.14,388.53c2.54-1.72,4.24-3.45,6.79-5.17c-3.39-1.72-6.79-1.72-8.48,0.86
				C697.6,386.81,700.14,387.67,700.14,388.53c-5.94,1.72-11.87,4.31-16.11,9.48l0,0c-0.85-1.72-0.85-5.17-3.39-4.31
				c-16.11,3.45-32.23,4.31-46.65,12.93c-34.77,21.55-67.85,43.97-101.78,67.25c-4.24,3.45-9.33,5.17-10.18,12.07
				c0,2.59-2.54,4.31-4.24,2.59c-2.54-1.72-5.09,0-6.79,0.86c-11.87,7.76-22.9,16.38-33.93,25.86c4.24,6.03,8.48,6.03,13.57,2.59
				c5.09-3.45,10.18-7.76,15.27-11.21c2.54-1.72,5.09-4.31,8.48-6.03c2.54-1.72,3.39-0.86,5.09,1.72c2.54,2.59,0.85,3.45-0.85,4.31
				c-5.09,2.59-9.33,6.03-14.42,8.62c-4.24,2.59-7.63,4.31-10.18,9.48c7.63,5.17,14.42,4.31,22.05,0
				c9.33-5.17,19.51-7.76,28.84-12.93c9.33-5.17,17.81-9.48,27.99-12.07c7.63-2.59,14.42-6.9,22.05-9.48
				c21.2-7.76,42.41-14.66,64.46-21.55c11.87-3.45,23.75-7.76,36.47-10.35c10.18-2.59,20.36-6.9,33.93-11.21
				c-11.03-5.17-18.66-9.48-26.29-12.93c-8.48-4.31-16.96-4.31-25.44-0.86c-16.96,7.76-37.32,9.48-50.89,25
				c-0.85,0.86-1.7,0.86-2.54,0.86c-11.87-1.72-19.51,6.03-28.84,10.35c-5.09,1.72-10.18,6.9-16.11,6.03l0,0
				c2.54-5.17,7.63-6.03,11.03-7.76c6.79-3.45,12.72-6.9,13.57-14.66c0.85-2.59,2.54-5.17,5.09-6.9c0.85-0.86,2.54-0.86,3.39,0
				c0.85,0.86,0.85,1.72,0.85,3.45c0,1.72-3.39,3.45,0,5.17c4.24,0,7.63-2.59,11.87-3.45c11.87-5.17,22.05-12.07,33.93-16.38
				c11.87-4.31,22.05-8.62,28.84-19.83c5.09-7.76,11.87-12.93,17.81-19.83C708.62,390.26,707.77,389.4,700.14,388.53z
				 M413.47,688.56L413.47,688.56c0.85-6.03,5.09-7.76,9.33-11.21c1.7-1.72,5.09-0.86,5.94-4.31c2.54-8.62,8.48-16.38,9.33-26.73
				c-5.09-0.86-8.48,0.86-11.87,3.45c-5.94,4.31-11.87,9.48-16.96,15.52c-1.7,2.59-5.09,7.76-8.48,6.03
				c-5.94-3.45-8.48,0.86-11.87,3.45c-5.09,4.31-10.18,9.48-15.27,13.79c-2.54,2.59-5.94,6.03-10.18,5.17
				c-0.85-3.45,0.85-6.03,1.7-7.76c2.54-4.31,5.94-7.76,7.63-12.07c3.39-9.48,5.94,0.86,9.33,0c4.24-0.86,6.79-4.31,10.18-7.76
				c2.54-2.59,4.24-7.76,8.48-6.9c7.63,1.72,11.87-4.31,16.11-7.76c5.94-5.17,12.72-9.48,20.36-12.93c2.54-0.86,5.94-1.72,6.79-4.31
				c3.39-10.35,10.18-18.97,6.79-31.9c-1.7-6.03-3.39-9.48-8.48-12.93c-9.33-5.17-19.51-8.62-28.84-12.93
				c-18.66-9.48-39.01-15.52-58.52-23.28c-4.24-1.72-9.33-3.45-14.42-1.72c-1.7,4.31-1.7,9.48-0.85,13.79
				c0.85,17.24-4.24,31.04-16.96,42.24c-9.33,7.76-15.27,18.1-20.36,29.31c-5.09,12.07-4.24,13.79,8.48,17.24
				c5.09,0.86,7.63,2.59,9.33,8.62c2.54,10.35,8.48,14.66,19.51,14.66c6.79,0,13.57,0.86,19.51,4.31c1.7,0.86,2.54,2.59,1.7,4.31
				c-0.85,1.72-2.54,1.72-4.24,1.72c-1.7-0.86-4.24-1.72-5.94-1.72c-5.09-0.86-11.03-1.72-16.11,0c-5.94,1.72-7.63,5.17-5.09,11.21
				c0.85,1.72,2.54,3.45,3.39,5.17c2.54-0.86,3.39-6.03,6.79-3.45c2.54,2.59,5.09,6.03,5.94,9.48c0.85,3.45,2.54,8.62-2.54,12.07
				c-4.24,2.59-8.48,8.62-15.27,0.86c0,9.48-0.85,16.38,0,23.28c0.85,10.35,8.48,15.52,18.66,14.66c2.54-0.86,5.94-0.86,8.48-2.59
				c16.11-6.9,33.08-12.93,50.04-18.1c5.09-1.72,6.79-3.45,8.48-8.62c3.39-15.52,6.79-31.9,9.33-47.42
				C418.56,682.52,417.71,689.42,413.47,688.56z M455.88,620.45c-5.09,20.69-16.96,37.07-23.75,56.04c0,0.86-0.85,1.72-0.85,2.59
				c-1.7,16.38-7.63,32.76-11.87,48.28c-4.24,16.38-3.39,31.9-3.39,48.28c0,4.31,0.85,9.48,3.39,12.07
				c11.03,12.07,18.66,26.73,30.53,37.07c4.24,3.45,8.48,7.76,12.72,0c0.85-1.72,3.39-2.59,5.94-1.72c4.24,1.72,5.94-0.86,8.48-3.45
				c5.09-6.9,10.18-13.79,14.42-20.69c2.54-3.45,4.24-6.9,4.24-12.07c0.85-21.55,2.54-42.24-4.24-63.8
				c-1.7-6.9-1.7-14.66-3.39-21.55c-1.7-9.48-1.7-18.97-4.24-27.59c-3.39-12.93-7.63-25.86-7.63-39.66c0-3.45,0-6.9-4.24-6.9
				C466.9,627.35,464.36,621.31,455.88,620.45z M524.57,276.46c-3.39,0-4.24,2.59-5.94,4.31c-6.79,6.9-12.72,13.79-20.36,19.83
				c-17.81,15.52-33.93,31.9-47.5,50.87c-16.96,22.42-32.23,47.42-48.34,70.7c-4.24,6.03-5.09,14.66-11.03,19.83
				c2.54,10.35-6.79,16.38-9.33,25c-0.85,2.59-1.7,6.03-2.54,8.62c-1.7,3.45-0.85,6.03,2.54,7.76c2.54,0.86,5.09,3.45,8.48,0.86
				c2.54-1.72,4.24-4.31,2.54-7.76c-2.54-4.31,0.85-7.76,1.7-11.21c2.54,1.72,0.85,5.17,4.24,6.03c8.48-6.9,13.57-17.24,19.51-26.73
				c7.63-12.07,18.66-23.28,22.05-38.8c0.85-2.59,1.7-5.17,5.94-5.17c3.39,0,5.09-3.45,6.79-6.03c5.09-7.76,11.87-13.79,14.42-22.42
				c0.85-2.59,2.54-6.03,4.24-6.03c7.63,0.86,9.33-6.03,11.87-9.48c5.94-10.35,14.42-18.1,22.05-27.59c1.7-1.72,3.39-3.45,5.09-6.03
				c1.7-3.45,3.39-6.9,4.24-10.35c1.7-6.03,5.09,2.59,7.63-1.72c5.09-6.9,11.03-12.07,12.72-21.55c1.7-7.76,4.24-14.66,6.79-22.42
				c0.85-2.59,3.39-6.03-0.85-10.35c-4.24,6.03-12.72,8.62-9.33,18.97c1.7,5.17-2.54,12.07-10.18,13.79
				C519.49,284.21,526.27,280.77,524.57,276.46z M386.33,435.09c1.7-2.59,2.54-3.45,3.39-4.31c5.09-10.35,9.33-19.83,14.42-30.17
				c3.39-7.76,5.94-16.38,11.87-21.55c5.94-5.17,12.72-8.62,12.72-17.24c8.48-0.86,10.18-9.48,14.42-15.52
				c1.7-2.59,2.54-5.17,0.85-8.62c-1.7-2.59,0-6.03,2.54-7.76c1.7-1.72,1.7,6.04,5.09,1.72c6.79-10.35,16.11-19.83,20.36-32.76
				c2.54-7.76,6.79-14.66,12.72-20.69c7.63-6.9,11.87-15.52,16.96-24.14c4.24-6.9,4.24-14.66,2.54-20.69
				c-5.09-2.59-2.54,3.45-6.79,1.72c0-4.31,1.7-7.76,3.39-11.21c2.54-4.31,6.79-9.48,1.7-12.07s-6.79,4.31-10.18,6.9
				c-1.7,1.72-3.39,4.31-2.54,6.9c1.7,5.17-0.85,11.21-0.85,16.38c0,1.72,0,4.31,0.85,6.03c3.39,7.76,4.24,7.76,0.85,13.79
				c-7.63-9.48-2.54-20.69-4.24-31.9c-16.96,12.07-27.99,29.31-33.08,49.14c0,1.72-1.7,4.31-1.7,4.31
				c-7.63-1.72-7.63,5.17-10.18,9.48c-11.03,16.38-16.96,36.21-25.44,54.31c-3.39,6.9-7.63,12.93-9.33,20.69
				c-4.24,15.52-10.18,31.04-16.11,45.69C388.87,422.16,386.33,427.33,386.33,435.09z M501.68,813.57
				c5.09-6.9,11.03-12.93,16.11-19.83c3.39-3.45,4.24-6.9,4.24-12.07c-0.85-17.24-0.85-35.35-6.79-51.73
				c-8.48-24.14-11.87-49.14-17.81-73.28c-1.7-7.76-4.24-15.52-5.94-23.28c-0.85-3.45-2.54-5.17-5.94-4.31
				c-3.39,0-4.24,2.59-4.24,5.17c0,4.31-0.85,8.62,0,12.93c6.79,25,9.33,50,13.57,75.01c2.54,14.66,5.09,29.31,4.24,43.97
				C499.98,782.53,500.83,798.05,501.68,813.57z M493.19,557.51c-17.81,0-28.84,7.76-33.93,25.86c-3.39,10.35-3.39,19.83,2.54,29.31
				c5.09,7.76,11.03,9.48,19.51,6.9c0.85,0,1.7-1.72,2.54,0c5.09,9.48,13.57,6.03,19.51,4.31c14.42-3.45,23.75-22.42,22.05-36.21
				C522.03,567.86,510.16,557.51,493.19,557.51z M498.28,633.38c0,11.21,4.24,21.55,5.94,32.76c2.54,17.24,5.94,34.49,11.87,50.87
				c5.94,16.38,9.33,32.76,9.33,50c0,3.45-0.85,7.76,3.39,10.35c4.24-7.76,11.87-13.79,10.18-23.28
				c-5.09-23.28-6.79-47.42-16.96-68.97c-3.39-6.9-6.79-14.66-9.33-22.42C510.16,652.35,504.22,642.86,498.28,633.38z
				 M547.47,240.25c-11.03,1.72-19.51,7.76-28.84,10.35c-14.42,5.17-20.36,12.93-22.9,29.31c0,0.86-0.85,3.45-1.7,3.45
				c-9.33,1.72-11.03,11.21-14.42,18.1c-4.24,6.03-8.48,12.93-9.33,20.69c8.48-10.35,16.96-18.97,26.29-27.59
				c5.94-5.17,12.72-8.62,16.96-15.52c7.63-11.21,16.11-19.83,27.14-25.86C544.93,250.59,548.32,248.01,547.47,240.25z
				 M527.97,603.21c12.72,1.72,23.75-2.59,35.62-2.59c2.54,0,4.24-1.72,5.09-3.45c2.54-1.72,4.24-4.31,3.39-7.76
				c-0.85-3.45-4.24-4.31-6.79-4.31c-4.24-0.86-9.33-0.86-13.57,0.86c-3.39,0.86-6.79,2.59-11.03,0.86
				c-1.7-4.31,1.7-7.76,3.39-12.07c1.7-3.45,2.54-6.9-0.85-11.21c-1.7-2.59-4.24-3.45-5.94,0c-1.7,3.45-3.39,6.9-4.24,10.35
				C532.21,584.24,531.36,593.72,527.97,603.21z M350.71,523.89c8.48-1.72,15.27-5.17,21.2-8.62c8.48-4.31,16.96-8.62,25.44-13.79
				c1.7-0.86,2.54-1.72,2.54-4.31c-0.85-1.72-2.54-2.59-3.39-3.45c-2.54-1.72-4.24,0-6.79,0.86c-3.39,2.59-6.79,4.31-11.03,6.03
				c-4.24,1.72-6.79,2.59-7.63-3.45c-0.85-5.17-4.24-1.72-5.09-0.86C359.19,505.78,355.79,514.41,350.71,523.89z M496.59,541.13
				c-0.85-3.45,1.7-8.62-5.09-9.48c-5.09-0.86-11.03-6.9-15.27-4.31c-5.09,4.31,0.85,10.35,0.85,16.38c0,1.72,0.85,3.45,1.7,5.17
				c0.85,1.72,1.7,2.59,3.39,3.45C489.8,554.06,496.59,549.75,496.59,541.13z M527.12,570.44c1.7-6.03,9.33-12.07,2.54-18.97
				c-6.79-6.9-15.27-3.45-24.6-2.59C513.55,557.51,523.73,560.1,527.12,570.44z"/>
			<path class="st0" d="M528.82,432.16c5.09,0,10.18,0,16.11,0c-5.94,0-11.03,7.76-17.81,2.59
				C527.97,433.88,528.82,433.02,528.82,432.16z"/>
			<path class="st0" d="M487.26,415.26c-0.85,0.86-2.54,2.59-3.39,2.59c-1.7,0.86-4.24,0-3.39-1.72c1.7-3.45,4.24-6.9,8.48-2.59
				C488.1,414.4,488.1,414.4,487.26,415.26z"/>
			<path class="st0" d="M678.94,623.9c-5.09-3.45-11.03-3.45-16.11-4.31c-3.39,4.31,4.24,5.17,1.7,6.9
				c-2.54,1.72-4.24,2.59-6.79,4.31c-0.85,0.86-5.09-1.72-5.09-4.31c0.85-6.03-2.54-8.62-7.63-9.48c-4.24-0.86-8.48-3.45-12.72,0
				c-2.54,1.72-9.33,3.45-10.18,0c-1.7-6.03-5.94-4.31-8.48-5.17c-4.24-0.86-8.48,0.86-12.72,2.59c-2.54,0.86-7.63-4.31-11.03-6.03
				c-0.85-0.86-2.54,0-3.39,0.86c-2.54,0.86-5.94,3.45-6.79-0.86c-0.85-2.59,3.39-3.45,5.94-3.45c7.63-0.86,16.11,0,23.75,1.72
				c25.44,5.17,50.89,9.48,77.18,13.79c11.87,2.59,23.75,5.17,35.62,7.76c1.7,0.86,4.24,1.72,5.94,0.86
				c7.63-3.45,10.18,2.59,12.72,7.76c-1.7,1.72-3.39,1.72-6.79,0.86C714.56,629.93,696.75,625.62,678.94,623.9L678.94,623.9z"/>
			<path class="st0" d="M360.62,584.24c11.87,3.45,24.6,6.9,35.62,10.35c0.85,3.45-0.85,4.31-1.7,4.31
				c-11.03-4.31-16.96,0.86-20.36,12.07c7.63,1.72,14.42-6.9,22.9-4.31c0.85,4.31-1.7,4.31-4.24,5.17
				c-13.57,4.31-27.14,7.76-40.71,13.79c-2.54,0.86-5.09,1.72-4.24,5.17c0.85,2.59,0.85,5.17,4.24,5.17
				c9.33,0.86,11.87,12.07,20.36,14.66c3.39,0.86-1.7,6.03,2.54,9.48c9.33-5.17,17.81-12.93,26.29-18.97
				c3.39-2.59,5.94-6.03,11.87-4.31c5.09,1.72,6.79-6.9,12.72-6.9c-2.54,9.48-10.18,15.52-20.36,15.52c-3.39,0-5.09,2.59-7.63,4.31
				c-7.63,6.03-14.42,12.93-23.75,17.24c-9.33,5.17-10.18,4.31-15.27-4.31c-3.39-5.17-5.09-11.21-13.57-11.21
				c-3.39,0-3.39-5.17-4.24-8.62c0-3.45-2.54-6.9-3.39-9.48c-2.54-4.31-5.94,0-9.33-0.86c-2.54,0-5.09,0-5.09-2.59
				c-1.7-6.9-0.85-13.79,2.54-19.83c1.7-3.45,4.24-0.86,5.94,0.86c1.7,2.59,3.39,6.03,5.94,8.62c2.54,2.59,5.94,4.31,10.18,1.72
				c4.24-2.59,0.85-5.17,0.85-7.76c0.85-4.31,1.7-8.62,1.7-12.93c1.7-12.93,1.7-12.93-11.03-13.79
				c4.24-12.07,15.27-18.97,27.99-18.97s24.6,6.03,33.93,14.66c1.7,1.72,3.39,4.31,1.7,6.9c-0.85,2.59-3.39,2.59-5.94,0.86
				c-3.39-1.72-7.63-3.45-11.03-6.03c-8.48-6.03-16.96-4.31-25.44-3.45C360.62,582.51,360.62,583.38,360.62,584.24z M375.3,599.76
				c-0.85-1.72-0.85-3.45-2.54-3.45c-1.7,0-1.7,2.59-1.7,4.31s0.85,3.45,2.54,3.45C375.3,604.07,375.3,601.48,375.3,599.76z"/>
			<path class="st0" d="M321.02,653.94c4.24-9.48,4.24-9.48-3.39-10.35c-0.85,0-2.54,0-3.39,0c-1.7-0.86-2.54-1.72-2.54-3.45
				c0-1.72,1.7-3.45,3.39-3.45c6.79-0.86,12.72,1.72,17.81,6.03c2.54,1.72,2.54,5.17,1.7,8.62
				C331.2,655.66,326.96,654.8,321.02,653.94z"/>
			<path class="st0" d="M368.52,635.11c9.33-11.21,22.05-13.79,35.62-6.03C389.72,628.21,379.54,632.52,368.52,635.11z"/>
			<path class="st0" d="M447.39,617c-2.54,5.17-8.48,6.04-11.03,10.35c-0.85-0.86-1.7-1.72-1.7-2.59c3.39-3.45,7.63-6.9,11.03-10.35
				C446.55,615.28,447.39,616.14,447.39,617z"/>
			<path class="st0" d="M413.47,688.56c-0.85,5.17-4.24,8.62-6.79,12.07C405.84,695.46,407.53,691.14,413.47,688.56L413.47,688.56z"
				/>
			<path class="st0" d="M578.52,474.75c-1.7,5.17-7.63,5.17-11.03,7.76c-2.54,1.72-7.63,2.59-6.79,7.76
				c0.85,2.59-0.85,1.72-1.7,1.72c-12.72-2.59-21.2,5.17-31.38,9.48c-1.7,0.86-2.54,1.72-5.09-0.86
				C540.36,490.27,559.02,482.51,578.52,474.75C578.52,475.61,578.52,474.75,578.52,474.75z"/>
			<path class="st0" d="M579.7,454.92c-9.33,8.62-17.81,17.24-27.14,25C558.5,466.99,570.37,454.92,579.7,454.92z"/>
			<path class="st0" d="M579.7,466.99c1.7-6.03,4.24-11.21,9.33-13.79c6.79-4.31,6.79-15.52,18.66-18.97
				C598.36,447.16,589.88,457.5,579.7,466.99z"/>
			<path class="st0" d="M533.9,481.64c1.7-2.59,2.54-6.03,6.79-6.9C543.23,476.47,543.23,476.47,533.9,481.64z"/>
			<path class="st0" d="M523.73,508.37c2.54-3.45,5.09-2.59,9.33-0.86C528.82,507.51,526.27,508.37,523.73,508.37z"/>
			<path class="st0" d="M449.94,764.43c-1.7-3.45-1.7-6.9-1.7-9.48c0.85-5.17,7.63-9.48,0.85-16.38c-1.7-1.72,2.54-6.9,4.24-10.35
				c0.85-1.72,0.85-3.45-0.85-4.31c-1.7,0-3.39,5.17-5.09,0.86c-0.85-2.59,0.85-5.17,1.7-7.76c1.7-6.03,6.79-11.21,0.85-17.24
				c-0.85-0.86,0-3.45,0.85-4.31c3.39-3.45,3.39-7.76,1.7-12.07c-0.85-2.59-0.85-5.17,0.85-7.76c2.54-3.45,3.39-7.76,0.85-12.07
				c-0.85-1.72-0.85-4.31,0-5.17c5.09-6.03,3.39-12.93,1.7-19.83c-1.7-9.48,2.54-11.21,15.27-8.62c0.85,3.45,0,6.03-2.54,7.76
				c-5.94,4.31-8.48,9.48-1.7,15.52c1.7,1.72,0.85,4.31-0.85,6.03c-1.7,2.59-5.09,3.45-5.09,6.9c0.85,1.72,2.54,2.59,4.24,3.45
				c5.94,3.45,5.94,5.17,1.7,9.48c-2.54,2.59-7.63,2.59-8.48,6.9c0.85,0.86,1.7,1.72,1.7,1.72c11.03,0,11.87,1.72,5.94,11.21
				c-1.7,3.45-2.54,5.17-0.85,9.48c1.7,2.59,1.7,6.9-0.85,9.48c-2.54,4.31-5.94,7.76,0.85,12.93c3.39,2.59-0.85,6.9-3.39,9.48
				c-1.7,1.72-4.24,3.45-1.7,5.17c2.54,2.59,5.09,4.31,3.39,8.62c-1.7,4.31-5.09,7.76-9.33,9.48
				C453.33,763.56,451.63,763.56,449.94,764.43z"/>
			<path class="st0" d="M459.27,823.05c-5.94,0-9.33-4.31-7.63-8.62c3.39-6.03,3.39-10.35-0.85-16.38c-1.7-2.59-0.85-6.03,0.85-8.62
				c2.54-4.31,6.79-4.31,10.18-2.59c4.24,1.72,4.24,5.17,1.7,8.62c-2.54,4.31-5.09,8.62,2.54,11.21c3.39,1.72,1.7,5.17,0,7.76
				C465.21,818.74,462.66,822.19,459.27,823.05z"/>
			<path class="st0" d="M466.9,770.46c0,5.17-6.79,12.93-12.72,12.93c-1.7,0-3.39-0.86-4.24-2.59c-1.7-5.17,0.85-7.76,3.39-11.21
				c2.54-3.45,5.09-4.31,9.33-3.45C465.21,767.01,466.9,767.87,466.9,770.46z"/>
			<path class="st0" d="M482.17,378.06c0.85-6.9,5.94-9.48,10.18-8.62c12.72,1.72,23.75-6.9,36.47-7.76c0.85,0,2.54,0,3.39,0
				c-2.54,6.9-6.79,11.21-11.87,8.62c-6.79-3.45-11.03,0-16.11,1.72C496.59,373.75,489.8,377.2,482.17,378.06z"/>
			<path class="st0" d="M515.25,385.09c-2.54,9.48-11.03,11.21-17.81,14.66c-2.54,0.86-4.24,0-5.09-2.59
				c-0.85-2.59,0.85-3.45,3.39-3.45C503.37,392.84,506.76,384.22,515.25,385.09z"/>
			<path class="st0" d="M583.1,296.28c-2.54,3.45-4.24,6.9-7.63,9.48c-1.7,0.86-4.24,0.86-5.09-0.86c-1.7-1.72-0.85-3.45,0.85-5.17
				C574.62,296.28,578.86,294.56,583.1,296.28z"/>
			<path class="st0" d="M422.8,460.95c3.39-1.72,6.79-2.59,10.18-4.31c2.54-1.72,4.24-1.72,6.79,0.86c0.85,0.86,1.7,1.72,0,2.59
				c-1.7,1.72-3.39,6.03-6.79,3.45C430.43,460.95,426.19,464.4,422.8,460.95z"/>
			<path class="st0" d="M450.79,433.36c0.85-6.9,5.09-7.76,11.87-6.9C459.27,431.64,455.03,432.5,450.79,433.36z"/>
			<path class="st0" d="M539.84,353.19c1.7-1.72,3.39-3.45,5.09-2.59c0.85,0,0.85,0.86,0,1.72
				C544.08,354.05,541.54,354.05,539.84,353.19z"/>
			<path class="st0" d="M566.98,316.11c-1.7,2.59-3.39,4.31-5.94,3.45l-0.85-1.72C562.74,314.39,564.44,316.11,566.98,316.11z"/>
			<path class="st0" d="M550.87,329.05c-1.7,1.72-5.09,2.59-5.94,0.86c-0.85-2.59,2.54-1.72,4.24-1.72
				C550.02,328.18,550.02,329.05,550.87,329.05z"/>
			<path class="st0" d="M466.9,435.95c-0.85,1.72-2.54,2.59-4.24,2.59l-0.85-1.72c0.85-1.72,1.7-2.59,3.39-2.59
				C466.05,434.23,466.9,435.09,466.9,435.95z"/>
			<path class="st0" d="M533.9,399.74c-2.54,5.17-5.09,7.76-9.33,10.35C526.27,404.91,527.12,401.47,533.9,399.74z"/>
			<path class="st0" d="M555.11,398.02c-0.85-0.86-0.85-0.86-0.85-1.72c0-1.72,0.85-3.45,2.54-3.45c0,0,0.85,0.86,0.85,1.72
				C557.65,396.29,556.8,397.16,555.11,398.02z"/>
			<path class="st0" d="M639.07,383.36c-17.81,6.9-36.47,11.21-55.98,18.97c5.09-7.76,4.24-8.62,27.14-12.93
				C619.57,387.67,628.05,380.77,639.07,383.36z"/>
			<path class="st0" d="M462.66,502.34c5.94-3.45,4.24-12.07,11.87-13.79c6.79-0.86,12.72-2.59,20.36-3.45
				C489.8,491.13,476.23,498.03,462.66,502.34z"/>
			<path class="st0" d="M485.56,475.61c8.48-3.45,17.81-6.9,26.29-10.35c0.85,0,2.54,0,3.39,0.86c0.85,1.72,0,3.45-0.85,4.31
				c-2.54,1.72-5.09,4.31-7.63,4.31C499.98,474.75,493.19,477.33,485.56,475.61z"/>
			<path class="st0" d="M552.56,432.5c0.85-3.45,3.39-3.45,5.94-3.45c3.39-0.86,6.79-3.45,10.18,0.86c0.85,0.86,0.85,1.72,0,2.59
				c-2.54,3.45-5.94,4.31-10.18,4.31C556.8,435.09,554.26,435.09,552.56,432.5z"/>
			<path class="st0" d="M589.88,416.12c2.54-10.35,8.48-6.03,13.57-7.76C600.06,413.54,594.97,413.54,589.88,416.12z"/>
			<path class="st0" d="M541.54,454.06c-0.85,1.72-2.54,3.45-5.09,2.59c-1.7,0-3.39-1.72-2.54-3.45s3.39-1.72,5.09-1.72
				C540.69,451.47,542.39,452.33,541.54,454.06z"/>
			<path class="st0" d="M494.04,327.32c0.85-6.9,2.54-11.21,6.79-14.66C499.98,317.84,499.13,323.01,494.04,327.32z"/>
			<path class="st0" d="M447.39,376.46c-5.09-6.03,0.85-9.48,2.54-15.52C452.48,368.7,451.63,372.15,447.39,376.46z"/>
			<path class="st1" d="M424.49,402.33c-1.7-6.9,3.39-10.35,5.94-17.24C429.58,392.84,429.58,392.84,424.49,402.33z"/>
			<path class="st0" d="M477.93,343.7c-1.7-6.04,0-9.48,3.39-13.79C483.02,335.08,480.47,338.53,477.93,343.7z"/>
			<path class="st0" d="M414.32,441.99c-1.7-6.03,1.7-8.62,2.54-12.93C420.25,435.09,417.71,437.68,414.32,441.99z"/>
			<path class="st0" d="M402.44,445.43c2.54,4.31,0,6.9-2.54,9.48C397.35,450.61,400.75,448.88,402.44,445.43z"/>
			<path class="st0" d="M460.96,289.39c-1.7-6.9-2.54-14.66,2.54-22.42C465.21,275.59,460.12,282.49,460.96,289.39z"/>
			<path class="st0" d="M472.84,265.25c0-6.9,1.7-11.21,4.24-18.97C477.08,256.63,477.08,256.63,472.84,265.25z"/>
			<path class="st0" d="M427.04,343.7c1.7,6.9-5.09,9.48-5.09,13.79C421.95,352.32,420.25,347.15,427.04,343.7z"/>
			<path class="st0" d="M459.27,315.25c-0.85-5.17,0-8.62,4.24-12.93C463.51,307.49,461.81,311.8,459.27,315.25z"/>
			<path class="st0" d="M440.61,313.53c2.54,5.17-2.54,6.9-2.54,12.07C437.22,320.42,435.52,316.11,440.61,313.53z"/>
			<path class="st0" d="M512.7,589.41c0,13.79-16.11,27.59-28.84,24.14s-19.51-20.69-11.87-31.9c4.24-6.9,11.03-11.21,19.51-12.93
				C505.07,566.13,512.7,573.89,512.7,589.41z M488.1,607.52c10.18,0,20.36-6.9,20.36-14.66c0-11.21-6.79-19.83-16.11-19.83
				c-10.18,0-18.66,9.48-18.66,18.97C473.69,600.62,479.62,606.65,488.1,607.52z"/>
			<path class="st0" d="M488.95,598.03c-3.39,0-5.09-1.72-5.94-5.17c-0.85-4.31,5.94-10.35,9.33-9.48c3.39,0,5.09,2.59,5.09,6.03
				C497.43,593.72,493.19,598.03,488.95,598.03z"/>
		</g>
	</g>
</g>
<rect x="594.67" y="491.67" class="st1" width="213.33" height="178.33"/>
</svg>
